<?xml version="1.0" encoding="UTF-8"?> <svg xmlns="http://www.w3.org/2000/svg" width="108" height="14" viewBox="0 0 108 14" fill="none"><path d="M107.445 12.9999C106.905 13.1079 105.915 13.1799 105.105 13.1799C102.585 13.1799 101.325 11.9199 101.325 9.2199V0.939903C101.325 0.633902 101.559 0.399902 101.865 0.399902H103.827C104.133 0.399902 104.367 0.633902 104.367 0.939903V3.8739H106.815C107.121 3.8739 107.355 4.1079 107.355 4.4139V5.4579C107.355 5.7639 107.121 5.9979 106.815 5.9979H104.367V9.2199C104.367 10.4439 104.997 11.0919 105.915 11.0919C106.383 11.0919 106.725 10.9839 107.121 10.9839H107.445C107.751 10.9839 107.985 11.2179 107.985 11.5239V12.4599C107.985 12.7299 107.751 12.9459 107.445 12.9999Z" fill="#F7F7F7"></path><path d="M96.5796 12.4599V7.41994C96.5796 5.92594 95.8956 5.31394 94.9056 5.31394C94.0236 5.31394 93.1956 5.92594 92.5476 6.57394V12.4599C92.5476 12.7659 92.3136 12.9999 92.0076 12.9999H90.0456C89.7396 12.9999 89.5056 12.7659 89.5056 12.4599V3.90994C89.5056 3.60394 89.7396 3.36994 90.0456 3.36994H92.0076C92.3136 3.36994 92.5476 3.60394 92.5476 3.90994V4.46794C93.3756 3.76594 94.2756 3.18994 95.6256 3.18994C97.9656 3.18994 99.6216 4.43194 99.6216 7.41994V12.4599C99.6216 12.7659 99.3876 12.9999 99.0816 12.9999H97.1196C96.8136 12.9999 96.5796 12.7659 96.5796 12.4599Z" fill="#F7F7F7"></path><path d="M87.7978 9.11194H81.1738C81.2998 10.5519 81.9478 11.1819 83.4238 11.1819C84.1798 11.1819 84.8458 10.9659 85.1518 10.5879C85.3858 10.2999 85.7098 10.1199 86.1598 10.1199H87.4738C87.7798 10.1199 88.0138 10.3539 88.0138 10.6599C88.0138 12.5319 86.0878 13.1799 83.2078 13.1799C80.0038 13.1799 78.0778 11.4519 78.0778 8.19394C78.0778 4.95394 80.0218 3.18994 83.2078 3.18994C86.4118 3.18994 88.3378 4.89994 88.3378 8.06794V8.57194C88.3378 8.87794 88.1038 9.11194 87.7978 9.11194ZM83.2078 5.18794C81.9118 5.18794 81.2278 5.90794 81.1558 7.25794H85.2418C85.1878 5.90794 84.5398 5.18794 83.2078 5.18794Z" fill="#F7F7F7"></path><path d="M77.9776 3.72994V5.06194C77.9776 5.36794 77.7436 5.60194 77.4376 5.60194H77.1496C76.7356 5.60194 76.2676 5.54794 75.7996 5.54794C74.8996 5.54794 74.1796 6.06994 73.5316 6.84394V12.4599C73.5316 12.7659 73.2976 12.9999 72.9916 12.9999H71.0296C70.7236 12.9999 70.4896 12.7659 70.4896 12.4599V3.90994C70.4896 3.60394 70.7236 3.36994 71.0296 3.36994H72.9916C73.2976 3.36994 73.5316 3.60394 73.5316 3.90994V4.46794C74.5396 3.72994 75.4576 3.18994 77.4376 3.18994C77.7436 3.18994 77.9776 3.42394 77.9776 3.72994Z" fill="#F7F7F7"></path><path d="M68.7818 9.11194H62.1578C62.2838 10.5519 62.9318 11.1819 64.4078 11.1819C65.1638 11.1819 65.8298 10.9659 66.1358 10.5879C66.3698 10.2999 66.6938 10.1199 67.1438 10.1199H68.4578C68.7638 10.1199 68.9978 10.3539 68.9978 10.6599C68.9978 12.5319 67.0718 13.1799 64.1918 13.1799C60.9878 13.1799 59.0618 11.4519 59.0618 8.19394C59.0618 4.95394 61.0058 3.18994 64.1918 3.18994C67.3958 3.18994 69.3218 4.89994 69.3218 8.06794V8.57194C69.3218 8.87794 69.0878 9.11194 68.7818 9.11194ZM64.1918 5.18794C62.8958 5.18794 62.2118 5.90794 62.1398 7.25794H66.2258C66.1718 5.90794 65.5238 5.18794 64.1918 5.18794Z" fill="#F7F7F7"></path><path d="M51.5791 12.4602V4.72022C51.5791 1.48021 52.8391 0.220215 56.6191 0.220215C57.4291 0.220215 58.4191 0.292215 58.9591 0.400215C59.2651 0.454215 59.4991 0.670214 59.4991 0.940215V1.91221C59.4991 2.21821 59.2651 2.45222 58.9591 2.45222H58.6351C58.2391 2.45222 57.8971 2.30821 57.4291 2.30821C55.0711 2.30821 54.6211 2.77622 54.6211 4.72022V4.86421H57.8071C58.1131 4.86421 58.3471 5.09822 58.3471 5.40421V6.44822C58.3471 6.75422 58.1131 6.98822 57.8071 6.98822H54.6211V12.4602C54.6211 12.7662 54.3871 13.0002 54.0811 13.0002H52.1191C51.8131 13.0002 51.5791 12.7662 51.5791 12.4602Z" fill="#F7F7F7"></path><path d="M49.8712 9.11194H43.2472C43.3732 10.5519 44.0212 11.1819 45.4972 11.1819C46.2532 11.1819 46.9192 10.9659 47.2252 10.5879C47.4592 10.2999 47.7832 10.1199 48.2332 10.1199H49.5472C49.8532 10.1199 50.0872 10.3539 50.0872 10.6599C50.0872 12.5319 48.1612 13.1799 45.2812 13.1799C42.0772 13.1799 40.1512 11.4519 40.1512 8.19394C40.1512 4.95394 42.0952 3.18994 45.2812 3.18994C48.4852 3.18994 50.4112 4.89994 50.4112 8.06794V8.57194C50.4112 8.87794 50.1772 9.11194 49.8712 9.11194ZM45.2812 5.18794C43.9852 5.18794 43.3012 5.90794 43.2292 7.25794H47.3152C47.2612 5.90794 46.6132 5.18794 45.2812 5.18794Z" fill="#F7F7F7"></path><path d="M32.4138 8.3919H30.2718V12.1719C30.2718 12.6219 29.9118 12.9999 29.4438 12.9999H27.7878C27.3378 12.9999 26.9598 12.6219 26.9598 12.1719V1.2279C26.9598 0.759903 27.3198 0.399902 27.7698 0.399902H35.0238C37.6518 0.399902 39.6138 1.9119 39.6138 4.3959C39.6138 6.3399 38.1198 7.2399 36.3018 7.5999C37.0398 7.8699 37.5798 8.4999 38.2998 9.6339L39.9018 12.1719C40.1898 12.6399 40.0638 12.9999 39.5958 12.9999H37.4898C37.0398 12.9999 36.4278 12.6399 36.1398 12.1719L34.6458 9.8319C34.1958 9.1299 33.5478 8.3919 32.4138 8.3919ZM34.0158 2.8839H30.2718V5.9079H34.0158C35.0238 5.9079 36.3018 5.5479 36.3018 4.3959C36.3018 3.2439 35.0238 2.8839 34.0158 2.8839Z" fill="#F7F7F7"></path><path d="M15.731 12.1899V1.2279C15.731 0.759903 16.109 0.399902 16.559 0.399902H18.197C18.665 0.399902 19.043 0.759903 19.043 1.2279V12.1719C19.043 12.6219 18.665 12.9999 18.197 12.9999H16.559C16.109 12.9999 15.731 12.6399 15.731 12.1899Z" fill="#F7F7F7"></path><path d="M0.125216 12.1899L2.33922 3.8199C3.07722 1.0299 5.61522 0.399902 8.17122 0.399902H12.9052C13.3372 0.399902 13.6612 0.777903 13.6612 1.2099V12.1899C13.6612 12.6399 13.2832 12.9999 12.8332 12.9999H11.1772C10.7092 12.9999 10.3492 12.6399 10.3492 12.1719V9.9579H4.10322L3.50922 12.1719C3.38322 12.6399 2.93322 12.9999 2.46522 12.9999H0.737217C0.269217 12.9999 -0.000783503 12.6399 0.125216 12.1899ZM5.52522 4.6479L4.75122 7.4739H10.3492V2.8839H7.84722C6.71322 2.8839 5.81322 3.5679 5.52522 4.6479Z" fill="#F7F7F7"></path></svg> 