<svg width="1666" height="361" viewBox="0 0 1666 361" fill="none" xmlns="http://www.w3.org/2000/svg">
<path d="M552.19 212H521.295L556.104 106.545H595.237L630.045 212H599.151L576.082 135.587H575.259L552.19 212ZM546.423 170.395H604.506V191.815H546.423V170.395ZM637.432 213.442V191.197H642.581C645.602 191.197 647.988 190.957 649.738 190.477C651.523 189.962 652.897 189.069 653.858 187.799C654.853 186.495 655.694 184.675 656.381 182.341L657.411 179.251L617.865 106.545H647.112L669.151 149.386L686.04 106.545H714.875L678.625 188.932C676.634 193.257 674.265 197.291 671.519 201.032C668.773 204.74 665.357 207.743 661.272 210.043C657.187 212.309 652.124 213.442 646.082 213.442H637.432ZM769.209 148.562V169.983H719.777V148.562H769.209ZM875.266 106.545V212H847.049V129.202H811.416V212H783.199V106.545H875.266ZM904.047 241.659C900.786 241.659 897.679 241.402 894.727 240.887C891.775 240.406 889.183 239.737 886.952 238.879L893.131 218.694C895.465 219.518 897.593 220.05 899.516 220.29C901.472 220.53 903.137 220.393 904.51 219.878C905.918 219.363 906.931 218.385 907.548 216.943L908.166 215.501L880.361 132.909H910.02L922.79 187.696H923.614L936.59 132.909H966.455L937.619 218.591C936.178 222.951 934.084 226.864 931.338 230.331C928.626 233.832 925.056 236.596 920.627 238.621C916.199 240.646 910.672 241.659 904.047 241.659ZM1037.73 104.28L1044.73 123.229C1042.6 124.739 1040.34 125.923 1037.94 126.782C1035.53 127.605 1032.53 128.189 1028.92 128.532C1025.32 128.841 1020.63 128.996 1014.87 128.996C1008.34 128.996 1003.09 129.751 999.111 131.261C995.129 132.772 992.125 135.329 990.1 138.934C988.074 142.538 986.718 147.464 986.032 153.712H986.65C988.812 148.974 991.902 145.181 995.918 142.332C999.969 139.483 1005.46 138.058 1012.4 138.058C1019.5 138.058 1025.63 139.569 1030.78 142.589C1035.93 145.576 1039.87 149.781 1042.62 155.205C1045.4 160.629 1046.79 166.996 1046.79 174.308C1046.79 182.204 1045.16 189.086 1041.9 194.956C1038.64 200.826 1033.95 205.375 1027.84 208.602C1021.73 211.828 1014.39 213.442 1005.8 213.442C997.223 213.442 989.876 211.76 983.766 208.396C977.656 205.031 972.97 200.088 969.709 193.566C966.448 187.044 964.817 179.045 964.817 169.571V164.422C964.817 144.375 968.988 129.717 977.33 120.448C985.706 111.18 997.875 106.545 1013.84 106.545C1017.54 106.545 1020.91 106.545 1023.93 106.545C1026.98 106.545 1029.66 106.391 1031.96 106.082C1034.3 105.773 1036.22 105.172 1037.73 104.28ZM1006.01 192.433C1008.41 192.433 1010.49 191.781 1012.24 190.477C1013.99 189.138 1015.35 187.215 1016.31 184.71C1017.27 182.169 1017.75 179.114 1017.75 175.544C1017.75 171.905 1017.27 168.816 1016.31 166.276C1015.35 163.735 1013.99 161.796 1012.24 160.457C1010.49 159.118 1008.41 158.449 1006.01 158.449C1004.12 158.449 1002.42 158.826 1000.91 159.582C999.402 160.337 998.115 161.453 997.051 162.929C996.021 164.37 995.232 166.155 994.682 168.284C994.133 170.378 993.858 172.798 993.858 175.544C993.858 180.899 994.923 185.053 997.051 188.005C999.214 190.957 1002.2 192.433 1006.01 192.433ZM1048.42 212L1048.22 190.58H1050.69C1052.23 190.58 1053.59 190.133 1054.76 189.241C1055.96 188.348 1056.97 186.975 1057.8 185.121C1058.65 183.268 1059.32 180.916 1059.8 178.067C1060.32 175.218 1060.64 171.837 1060.78 167.923L1062.02 132.909H1127.1V212H1100.33V154.124H1087.15L1085.91 175.544C1085.57 182.272 1084.61 187.971 1083.03 192.639C1081.48 197.308 1079.42 201.067 1076.85 203.916C1074.27 206.731 1071.29 208.79 1067.89 210.095C1064.49 211.365 1060.75 212 1056.66 212H1048.42ZM1160.25 175.75L1182.29 132.909H1209.06V212H1182.29V168.953L1160.25 212H1133.47V132.909H1160.25V175.75ZM1216.28 212V132.909H1244.7V161.126H1249.65L1266.54 132.909H1299.08L1273.75 172.866L1299.29 212H1266.33L1251.09 187.49H1244.7V212H1216.28ZM1320.7 213.236C1315.66 213.236 1311.19 212.412 1307.32 210.764C1303.47 209.082 1300.45 206.542 1298.25 203.143C1296.06 199.745 1294.96 195.42 1294.96 190.168C1294.96 185.842 1295.7 182.152 1297.17 179.097C1298.65 176.007 1300.71 173.484 1303.35 171.528C1305.99 169.571 1309.07 168.078 1312.57 167.048C1316.1 166.018 1319.91 165.349 1324 165.04C1328.43 164.696 1331.98 164.285 1334.66 163.804C1337.37 163.289 1339.33 162.585 1340.53 161.693C1341.73 160.766 1342.33 159.547 1342.33 158.037V157.831C1342.33 155.771 1341.54 154.192 1339.96 153.094C1338.38 151.995 1336.36 151.446 1333.89 151.446C1331.17 151.446 1328.96 152.047 1327.24 153.248C1325.56 154.415 1324.55 156.218 1324.2 158.655H1298.05C1298.39 153.849 1299.92 149.421 1302.63 145.37C1305.38 141.285 1309.38 138.024 1314.63 135.587C1319.88 133.115 1326.44 131.879 1334.3 131.879C1339.96 131.879 1345.04 132.549 1349.54 133.887C1354.04 135.192 1357.86 137.028 1361.02 139.397C1364.18 141.731 1366.58 144.478 1368.23 147.636C1369.91 150.759 1370.75 154.158 1370.75 157.831V212H1344.18V200.878H1343.57C1341.99 203.83 1340.06 206.216 1337.8 208.035C1335.57 209.855 1333.01 211.176 1330.13 212C1327.28 212.824 1324.14 213.236 1320.7 213.236ZM1329.97 195.317C1332.13 195.317 1334.16 194.871 1336.05 193.978C1337.97 193.085 1339.53 191.798 1340.73 190.116C1341.93 188.434 1342.54 186.392 1342.54 183.989V177.398C1341.78 177.707 1340.97 177.998 1340.12 178.273C1339.29 178.548 1338.4 178.805 1337.44 179.045C1336.51 179.286 1335.52 179.509 1334.45 179.715C1333.42 179.921 1332.34 180.11 1331.21 180.281C1329.01 180.625 1327.21 181.191 1325.8 181.98C1324.43 182.736 1323.4 183.68 1322.71 184.812C1322.06 185.911 1321.73 187.147 1321.73 188.52C1321.73 190.717 1322.51 192.399 1324.05 193.566C1325.59 194.733 1327.57 195.317 1329.97 195.317ZM1371.05 154.124V132.909H1447.67V154.124H1422.54V212H1395.76V154.124H1371.05ZM1487.09 213.442C1478.51 213.442 1471.16 211.743 1465.05 208.344C1458.94 204.911 1454.26 200.14 1451 194.029C1447.74 187.885 1446.11 180.762 1446.11 172.661C1446.11 164.559 1447.74 157.453 1451 151.343C1454.26 145.198 1458.94 140.427 1465.05 137.028C1471.16 133.596 1478.51 131.879 1487.09 131.879C1495.67 131.879 1503.02 133.596 1509.13 137.028C1515.24 140.427 1519.93 145.198 1523.19 151.343C1526.45 157.453 1528.08 164.559 1528.08 172.661C1528.08 180.762 1526.45 187.885 1523.19 194.029C1519.93 200.14 1515.24 204.911 1509.13 208.344C1503.02 211.743 1495.67 213.442 1487.09 213.442ZM1487.3 192.433C1489.7 192.433 1491.78 191.627 1493.53 190.013C1495.28 188.4 1496.64 186.1 1497.6 183.113C1498.56 180.127 1499.04 176.574 1499.04 172.455C1499.04 168.301 1498.56 164.748 1497.6 161.796C1496.64 158.809 1495.28 156.509 1493.53 154.896C1491.78 153.283 1489.7 152.476 1487.3 152.476C1484.76 152.476 1482.58 153.283 1480.76 154.896C1478.94 156.509 1477.55 158.809 1476.59 161.796C1475.63 164.748 1475.15 168.301 1475.15 172.455C1475.15 176.574 1475.63 180.127 1476.59 183.113C1477.55 186.1 1478.94 188.4 1480.76 190.013C1482.58 191.627 1484.76 192.433 1487.3 192.433ZM1532.36 241.659V132.909H1560.58V146.709H1561.2C1562.23 144.031 1563.74 141.577 1565.73 139.346C1567.72 137.08 1570.19 135.278 1573.15 133.939C1576.1 132.566 1579.53 131.879 1583.44 131.879C1588.66 131.879 1593.62 133.27 1598.32 136.05C1603.06 138.831 1606.91 143.207 1609.86 149.18C1612.85 155.153 1614.34 162.911 1614.34 172.455C1614.34 181.586 1612.91 189.155 1610.06 195.162C1607.25 201.17 1603.47 205.649 1598.74 208.602C1594.03 211.554 1588.87 213.03 1583.24 213.03C1579.53 213.03 1576.22 212.429 1573.3 211.228C1570.42 209.992 1567.94 208.327 1565.89 206.233C1563.86 204.105 1562.3 201.702 1561.2 199.024H1560.79V241.659H1532.36ZM1560.17 172.455C1560.17 176.299 1560.67 179.629 1561.66 182.444C1562.69 185.224 1564.13 187.387 1565.99 188.932C1567.88 190.442 1570.12 191.197 1572.73 191.197C1575.34 191.197 1577.56 190.459 1579.38 188.983C1581.23 187.473 1582.64 185.327 1583.6 182.547C1584.59 179.732 1585.09 176.368 1585.09 172.455C1585.09 168.541 1584.59 165.194 1583.6 162.414C1582.64 159.599 1581.23 157.453 1579.38 155.977C1577.56 154.467 1575.34 153.712 1572.73 153.712C1570.12 153.712 1567.88 154.467 1565.99 155.977C1564.13 157.453 1562.69 159.599 1561.66 162.414C1560.67 165.194 1560.17 168.541 1560.17 172.455Z" fill="white"/>
<path d="M559.433 275.554H552.786C552.53 274.134 552.054 272.884 551.358 271.804C550.662 270.724 549.81 269.808 548.801 269.055C547.793 268.303 546.664 267.734 545.414 267.351C544.178 266.967 542.864 266.776 541.472 266.776C538.958 266.776 536.706 267.408 534.718 268.672C532.743 269.936 531.181 271.79 530.03 274.233C528.894 276.676 528.325 279.659 528.325 283.182C528.325 286.733 528.894 289.73 530.03 292.173C531.181 294.616 532.75 296.463 534.739 297.713C536.727 298.963 538.965 299.588 541.45 299.588C542.828 299.588 544.135 299.403 545.371 299.034C546.621 298.651 547.75 298.089 548.759 297.351C549.767 296.612 550.619 295.71 551.316 294.645C552.026 293.565 552.516 292.33 552.786 290.938L559.433 290.959C559.078 293.104 558.389 295.078 557.367 296.882C556.358 298.672 555.058 300.22 553.468 301.527C551.891 302.82 550.087 303.821 548.056 304.531C546.024 305.241 543.808 305.597 541.408 305.597C537.629 305.597 534.263 304.702 531.308 302.912C528.354 301.108 526.024 298.53 524.32 295.178C522.629 291.825 521.784 287.827 521.784 283.182C521.784 278.523 522.637 274.524 524.341 271.186C526.046 267.834 528.375 265.263 531.33 263.473C534.284 261.669 537.644 260.767 541.408 260.767C543.723 260.767 545.882 261.101 547.885 261.768C549.902 262.422 551.713 263.388 553.318 264.666C554.923 265.93 556.252 267.479 557.303 269.311C558.354 271.129 559.064 273.21 559.433 275.554ZM580.905 305.661C577.681 305.661 574.904 304.972 572.574 303.594C570.259 302.202 568.469 300.249 567.205 297.734C565.955 295.206 565.33 292.244 565.33 288.849C565.33 285.497 565.955 282.543 567.205 279.986C568.469 277.429 570.231 275.433 572.489 273.999C574.762 272.564 577.418 271.847 580.458 271.847C582.305 271.847 584.094 272.152 585.827 272.763C587.56 273.374 589.116 274.332 590.493 275.639C591.871 276.946 592.958 278.643 593.753 280.732C594.549 282.805 594.947 285.327 594.947 288.295V290.554H568.931V285.781H588.704C588.704 284.105 588.363 282.621 587.681 281.328C586.999 280.021 586.04 278.991 584.805 278.239C583.583 277.486 582.148 277.109 580.501 277.109C578.711 277.109 577.148 277.55 575.813 278.43C574.492 279.297 573.469 280.433 572.745 281.839C572.035 283.232 571.68 284.744 571.68 286.378V290.107C571.68 292.294 572.063 294.155 572.83 295.689C573.611 297.223 574.698 298.395 576.09 299.205C577.482 300 579.108 300.398 580.969 300.398C582.177 300.398 583.278 300.227 584.272 299.886C585.266 299.531 586.126 299.006 586.85 298.31C587.574 297.614 588.128 296.754 588.512 295.732L594.542 296.818C594.059 298.594 593.192 300.149 591.942 301.484C590.706 302.805 589.151 303.835 587.276 304.574C585.415 305.298 583.292 305.661 580.905 305.661ZM602.015 317.273V272.273H608.237V277.578H608.769C609.139 276.896 609.671 276.108 610.367 275.213C611.063 274.318 612.029 273.537 613.265 272.869C614.501 272.188 616.134 271.847 618.166 271.847C620.808 271.847 623.166 272.514 625.24 273.849C627.313 275.185 628.94 277.109 630.119 279.624C631.312 282.138 631.909 285.163 631.909 288.7C631.909 292.237 631.319 295.27 630.14 297.798C628.961 300.312 627.342 302.251 625.282 303.615C623.222 304.964 620.872 305.639 618.23 305.639C616.241 305.639 614.615 305.305 613.35 304.638C612.1 303.97 611.12 303.189 610.41 302.294C609.7 301.399 609.153 300.604 608.769 299.908H608.386V317.273H602.015ZM608.258 288.636C608.258 290.937 608.592 292.955 609.259 294.688C609.927 296.42 610.893 297.777 612.157 298.757C613.421 299.723 614.97 300.206 616.802 300.206C618.705 300.206 620.296 299.702 621.575 298.693C622.853 297.67 623.819 296.286 624.472 294.538C625.14 292.791 625.474 290.824 625.474 288.636C625.474 286.477 625.147 284.538 624.494 282.82C623.855 281.101 622.889 279.744 621.596 278.75C620.318 277.756 618.72 277.259 616.802 277.259C614.955 277.259 613.393 277.734 612.115 278.686C610.85 279.638 609.892 280.966 609.238 282.67C608.585 284.375 608.258 286.364 608.258 288.636ZM639.046 305V272.273H652.619C656.312 272.273 659.238 273.061 661.397 274.638C663.556 276.2 664.636 278.324 664.636 281.009C664.636 282.926 664.025 284.446 662.803 285.568C661.582 286.69 659.963 287.443 657.945 287.827C659.409 287.997 660.751 288.437 661.972 289.148C663.194 289.844 664.174 290.781 664.913 291.96C665.666 293.139 666.042 294.545 666.042 296.179C666.042 297.912 665.595 299.446 664.7 300.781C663.805 302.102 662.505 303.139 660.801 303.892C659.11 304.631 657.072 305 654.686 305H639.046ZM645.034 299.673H654.686C656.262 299.673 657.498 299.297 658.393 298.544C659.288 297.791 659.735 296.768 659.735 295.476C659.735 293.956 659.288 292.763 658.393 291.896C657.498 291.016 656.262 290.575 654.686 290.575H645.034V299.673ZM645.034 285.909H652.683C653.876 285.909 654.899 285.739 655.751 285.398C656.617 285.057 657.278 284.574 657.732 283.949C658.201 283.31 658.436 282.557 658.436 281.69C658.436 280.426 657.917 279.439 656.88 278.729C655.843 278.018 654.423 277.663 652.619 277.663H645.034V285.909ZM679.274 296.072L693.698 272.273H700.559V305H694.316V281.179L679.955 305H673.031V272.273H679.274V296.072ZM722.91 305.661C719.742 305.661 717.015 304.943 714.728 303.509C712.455 302.06 710.708 300.064 709.487 297.521C708.265 294.979 707.654 292.067 707.654 288.786C707.654 285.462 708.279 282.528 709.529 279.986C710.779 277.429 712.541 275.433 714.813 273.999C717.086 272.564 719.764 271.847 722.846 271.847C725.332 271.847 727.548 272.308 729.494 273.232C731.44 274.141 733.009 275.419 734.203 277.067C735.41 278.714 736.127 280.639 736.355 282.841H730.154C729.813 281.307 729.032 279.986 727.811 278.878C726.603 277.77 724.984 277.216 722.953 277.216C721.177 277.216 719.622 277.685 718.286 278.622C716.965 279.545 715.936 280.866 715.197 282.585C714.458 284.29 714.089 286.307 714.089 288.636C714.089 291.023 714.451 293.082 715.176 294.815C715.9 296.548 716.923 297.891 718.244 298.842C719.579 299.794 721.149 300.27 722.953 300.27C724.16 300.27 725.254 300.05 726.234 299.609C727.228 299.155 728.059 298.509 728.727 297.67C729.409 296.832 729.884 295.824 730.154 294.645H736.355C736.127 296.761 735.438 298.651 734.288 300.312C733.137 301.974 731.596 303.281 729.664 304.233C727.747 305.185 725.495 305.661 722.91 305.661ZM759.046 305V272.273H785.744V305H779.501V277.77H765.247V305H759.046ZM797.116 317.273C796.165 317.273 795.298 317.195 794.517 317.038C793.736 316.896 793.153 316.74 792.77 316.57L794.304 311.349C795.469 311.662 796.506 311.797 797.415 311.754C798.324 311.712 799.126 311.371 799.822 310.732C800.532 310.092 801.157 309.048 801.697 307.599L802.486 305.426L790.511 272.273H797.329L805.618 297.67H805.959L814.247 272.273H821.086L807.599 309.368C806.974 311.072 806.179 312.514 805.213 313.693C804.247 314.886 803.096 315.781 801.761 316.378C800.426 316.974 798.878 317.273 797.116 317.273ZM852.322 260.085L854.964 264.112C853.984 265.007 852.869 265.646 851.619 266.03C850.383 266.399 848.956 266.634 847.336 266.733C845.717 266.818 843.863 266.896 841.775 266.967C839.417 267.038 837.479 267.55 835.959 268.501C834.439 269.439 833.267 270.831 832.443 272.678C831.633 274.51 831.108 276.811 830.866 279.581H831.271C832.336 277.55 833.814 276.03 835.703 275.021C837.606 274.013 839.744 273.509 842.116 273.509C844.758 273.509 847.109 274.112 849.169 275.32C851.229 276.527 852.848 278.295 854.027 280.625C855.22 282.94 855.817 285.774 855.817 289.126C855.817 292.521 855.192 295.455 853.942 297.926C852.706 300.398 850.959 302.308 848.7 303.658C846.456 304.993 843.807 305.661 840.753 305.661C837.699 305.661 835.035 304.972 832.763 303.594C830.504 302.202 828.75 300.142 827.5 297.415C826.264 294.687 825.646 291.321 825.646 287.315V284.077C825.646 276.591 826.981 270.959 829.652 267.18C832.322 263.402 836.314 261.463 841.626 261.364C843.345 261.321 844.879 261.314 846.229 261.342C847.578 261.357 848.757 261.293 849.765 261.151C850.788 260.994 851.64 260.639 852.322 260.085ZM840.774 300.312C842.55 300.312 844.077 299.865 845.355 298.97C846.648 298.061 847.642 296.776 848.338 295.114C849.034 293.452 849.382 291.491 849.382 289.233C849.382 287.017 849.034 285.135 848.338 283.587C847.642 282.038 846.648 280.859 845.355 280.05C844.062 279.226 842.514 278.814 840.71 278.814C839.375 278.814 838.182 279.048 837.131 279.517C836.079 279.972 835.177 280.646 834.425 281.541C833.686 282.436 833.111 283.53 832.699 284.822C832.301 286.101 832.088 287.571 832.059 289.233C832.059 292.614 832.834 295.305 834.382 297.308C835.944 299.311 838.075 300.312 840.774 300.312ZM860.355 305L860.334 299.482H861.506C862.415 299.482 863.175 299.29 863.785 298.906C864.41 298.509 864.922 297.841 865.319 296.903C865.717 295.966 866.023 294.673 866.236 293.026C866.449 291.364 866.605 289.276 866.704 286.761L867.28 272.273H890.121V305H883.878V277.77H873.182L872.67 288.892C872.542 291.591 872.265 293.949 871.839 295.966C871.427 297.983 870.824 299.666 870.028 301.016C869.233 302.351 868.21 303.352 866.96 304.02C865.71 304.673 864.19 305 862.4 305H860.355ZM904.86 296.072L919.284 272.273H926.145V305H919.902V281.179L905.541 305H898.617V272.273H904.86V296.072ZM934.71 305V272.273H941.081V285.994H944.149L954.952 272.273H962.835L950.158 288.189L962.985 305H955.08L945.215 291.918H941.081V305H934.71ZM977.457 305.724C975.383 305.724 973.508 305.341 971.832 304.574C970.156 303.793 968.828 302.663 967.848 301.186C966.882 299.709 966.399 297.898 966.399 295.753C966.399 293.906 966.754 292.386 967.464 291.193C968.175 290 969.133 289.055 970.341 288.359C971.548 287.663 972.898 287.138 974.389 286.783C975.881 286.428 977.4 286.158 978.949 285.973C980.909 285.746 982.5 285.561 983.721 285.419C984.943 285.263 985.831 285.014 986.385 284.673C986.939 284.332 987.216 283.778 987.216 283.011V282.862C987.216 281.001 986.69 279.56 985.639 278.537C984.602 277.514 983.054 277.003 980.994 277.003C978.849 277.003 977.159 277.479 975.923 278.43C974.702 279.368 973.856 280.412 973.388 281.562L967.4 280.199C968.111 278.21 969.148 276.605 970.511 275.384C971.889 274.148 973.473 273.253 975.263 272.699C977.052 272.131 978.934 271.847 980.909 271.847C982.216 271.847 983.601 272.003 985.064 272.315C986.541 272.614 987.919 273.168 989.197 273.977C990.49 274.787 991.548 275.945 992.372 277.45C993.196 278.942 993.608 280.881 993.608 283.267V305H987.386V300.526H987.131C986.719 301.349 986.101 302.159 985.277 302.955C984.453 303.75 983.395 304.411 982.102 304.936C980.809 305.462 979.261 305.724 977.457 305.724ZM978.842 300.611C980.604 300.611 982.109 300.263 983.359 299.567C984.623 298.871 985.582 297.962 986.236 296.839C986.903 295.703 987.237 294.489 987.237 293.196V288.977C987.01 289.205 986.569 289.418 985.916 289.616C985.277 289.801 984.545 289.964 983.721 290.107C982.898 290.234 982.095 290.355 981.314 290.469C980.532 290.568 979.879 290.653 979.354 290.724C978.118 290.881 976.988 291.143 975.966 291.513C974.957 291.882 974.148 292.415 973.537 293.111C972.94 293.793 972.642 294.702 972.642 295.838C972.642 297.415 973.224 298.608 974.389 299.418C975.554 300.213 977.038 300.611 978.842 300.611ZM1028.79 272.273V299.78H1033.58V315.547H1027.3V305H1002.09V272.273H1008.34V299.503H1022.57V272.273H1028.79ZM1046.89 296.072L1061.32 272.273H1068.18V305H1061.93V281.179L1047.57 305H1040.65V272.273H1046.89V296.072ZM1082.98 296.072L1097.41 272.273H1104.27V305H1098.03V281.179L1083.67 305H1076.74V272.273H1082.98V296.072ZM1094.68 261.193H1099.92C1099.92 263.594 1099.07 265.547 1097.37 267.053C1095.68 268.544 1093.39 269.29 1090.51 269.29C1087.64 269.29 1085.36 268.544 1083.67 267.053C1081.98 265.547 1081.13 263.594 1081.13 261.193H1086.35C1086.35 262.259 1086.66 263.203 1087.29 264.027C1087.91 264.837 1088.99 265.241 1090.51 265.241C1092 265.241 1093.06 264.837 1093.7 264.027C1094.36 263.217 1094.68 262.273 1094.68 261.193ZM1128.71 305V272.273H1142.29C1145.98 272.273 1148.91 273.061 1151.07 274.638C1153.22 276.2 1154.3 278.324 1154.3 281.009C1154.3 282.926 1153.69 284.446 1152.47 285.568C1151.25 286.69 1149.63 287.443 1147.61 287.827C1149.08 287.997 1150.42 288.437 1151.64 289.148C1152.86 289.844 1153.84 290.781 1154.58 291.96C1155.33 293.139 1155.71 294.545 1155.71 296.179C1155.71 297.912 1155.26 299.446 1154.37 300.781C1153.47 302.102 1152.17 303.139 1150.47 303.892C1148.78 304.631 1146.74 305 1144.35 305H1128.71ZM1134.7 299.673H1144.35C1145.93 299.673 1147.17 299.297 1148.06 298.544C1148.96 297.791 1149.4 296.768 1149.4 295.476C1149.4 293.956 1148.96 292.763 1148.06 291.896C1147.17 291.016 1145.93 290.575 1144.35 290.575H1134.7V299.673ZM1134.7 285.909H1142.35C1143.54 285.909 1144.57 285.739 1145.42 285.398C1146.29 285.057 1146.95 284.574 1147.4 283.949C1147.87 283.31 1148.1 282.557 1148.1 281.69C1148.1 280.426 1147.59 279.439 1146.55 278.729C1145.51 278.018 1144.09 277.663 1142.29 277.663H1134.7V285.909ZM1204.98 305L1190.32 285.44H1185.67V305H1179.09V261.364H1185.67V279.794H1187.82L1204.32 261.364H1212.35L1194.9 280.902L1213.01 305H1204.98ZM1229.98 305.661C1226.91 305.661 1224.23 304.957 1221.95 303.551C1219.66 302.145 1217.89 300.178 1216.62 297.649C1215.36 295.121 1214.72 292.166 1214.72 288.786C1214.72 285.391 1215.36 282.422 1216.62 279.879C1217.89 277.337 1219.66 275.362 1221.95 273.956C1224.23 272.55 1226.91 271.847 1229.98 271.847C1233.05 271.847 1235.73 272.55 1238.01 273.956C1240.3 275.362 1242.08 277.337 1243.34 279.879C1244.6 282.422 1245.24 285.391 1245.24 288.786C1245.24 292.166 1244.6 295.121 1243.34 297.649C1242.08 300.178 1240.3 302.145 1238.01 303.551C1235.73 304.957 1233.05 305.661 1229.98 305.661ZM1230 300.312C1231.99 300.312 1233.64 299.787 1234.94 298.736C1236.25 297.685 1237.22 296.286 1237.84 294.538C1238.48 292.791 1238.8 290.866 1238.8 288.764C1238.8 286.676 1238.48 284.759 1237.84 283.011C1237.22 281.25 1236.25 279.837 1234.94 278.771C1233.64 277.706 1231.99 277.173 1230 277.173C1228 277.173 1226.34 277.706 1225.02 278.771C1223.71 279.837 1222.74 281.25 1222.1 283.011C1221.47 284.759 1221.16 286.676 1221.16 288.764C1221.16 290.866 1221.47 292.791 1222.1 294.538C1222.74 296.286 1223.71 297.685 1225.02 298.736C1226.34 299.787 1228 300.312 1230 300.312ZM1270.71 297.116L1281.28 272.273H1286.78L1273.08 305H1268.35L1254.93 272.273H1260.36L1270.71 297.116ZM1258.59 272.273V305H1252.35V272.273H1258.59ZM1283.01 305V272.273H1289.21V305H1283.01ZM1316.07 297.116L1326.63 272.273H1332.13L1318.43 305H1313.7L1300.28 272.273H1305.71L1316.07 297.116ZM1303.94 272.273V305H1297.7V272.273H1303.94ZM1328.36 305V272.273H1334.56V305H1328.36ZM1357.16 305.661C1353.93 305.661 1351.15 304.972 1348.82 303.594C1346.51 302.202 1344.72 300.249 1343.46 297.734C1342.21 295.206 1341.58 292.244 1341.58 288.849C1341.58 285.497 1342.21 282.543 1343.46 279.986C1344.72 277.429 1346.48 275.433 1348.74 273.999C1351.01 272.564 1353.67 271.847 1356.71 271.847C1358.55 271.847 1360.34 272.152 1362.08 272.763C1363.81 273.374 1365.37 274.332 1366.74 275.639C1368.12 276.946 1369.21 278.643 1370 280.732C1370.8 282.805 1371.2 285.327 1371.2 288.295V290.554H1345.18V285.781H1364.95C1364.95 284.105 1364.61 282.621 1363.93 281.328C1363.25 280.021 1362.29 278.991 1361.05 278.239C1359.83 277.486 1358.4 277.109 1356.75 277.109C1354.96 277.109 1353.4 277.55 1352.06 278.43C1350.74 279.297 1349.72 280.433 1348.99 281.839C1348.28 283.232 1347.93 284.744 1347.93 286.378V290.107C1347.93 292.294 1348.31 294.155 1349.08 295.689C1349.86 297.223 1350.95 298.395 1352.34 299.205C1353.73 300 1355.36 300.398 1357.22 300.398C1358.43 300.398 1359.53 300.227 1360.52 299.886C1361.52 299.531 1362.38 299.006 1363.1 298.31C1363.82 297.614 1364.38 296.754 1364.76 295.732L1370.79 296.818C1370.31 298.594 1369.44 300.149 1368.19 301.484C1366.96 302.805 1365.4 303.835 1363.53 304.574C1361.67 305.298 1359.54 305.661 1357.16 305.661ZM1378.27 317.273V272.273H1384.49V277.578H1385.02C1385.39 276.896 1385.92 276.108 1386.62 275.213C1387.31 274.318 1388.28 273.537 1389.52 272.869C1390.75 272.188 1392.38 271.847 1394.42 271.847C1397.06 271.847 1399.42 272.514 1401.49 273.849C1403.56 275.185 1405.19 277.109 1406.37 279.624C1407.56 282.138 1408.16 285.163 1408.16 288.7C1408.16 292.237 1407.57 295.27 1406.39 297.798C1405.21 300.312 1403.59 302.251 1401.53 303.615C1399.47 304.964 1397.12 305.639 1394.48 305.639C1392.49 305.639 1390.86 305.305 1389.6 304.638C1388.35 303.97 1387.37 303.189 1386.66 302.294C1385.95 301.399 1385.4 300.604 1385.02 299.908H1384.64V317.273H1378.27ZM1384.51 288.636C1384.51 290.937 1384.84 292.955 1385.51 294.688C1386.18 296.42 1387.14 297.777 1388.41 298.757C1389.67 299.723 1391.22 300.206 1393.05 300.206C1394.96 300.206 1396.55 299.702 1397.82 298.693C1399.1 297.67 1400.07 296.286 1400.72 294.538C1401.39 292.791 1401.72 290.824 1401.72 288.636C1401.72 286.477 1401.4 284.538 1400.74 282.82C1400.1 281.101 1399.14 279.744 1397.85 278.75C1396.57 277.756 1394.97 277.259 1393.05 277.259C1391.21 277.259 1389.64 277.734 1388.36 278.686C1387.1 279.638 1386.14 280.966 1385.49 282.67C1384.83 284.375 1384.51 286.364 1384.51 288.636ZM1429.08 305.661C1425.91 305.661 1423.19 304.943 1420.9 303.509C1418.63 302.06 1416.88 300.064 1415.66 297.521C1414.44 294.979 1413.83 292.067 1413.83 288.786C1413.83 285.462 1414.45 282.528 1415.7 279.986C1416.95 277.429 1418.71 275.433 1420.99 273.999C1423.26 272.564 1425.94 271.847 1429.02 271.847C1431.5 271.847 1433.72 272.308 1435.67 273.232C1437.61 274.141 1439.18 275.419 1440.37 277.067C1441.58 278.714 1442.3 280.639 1442.53 282.841H1436.33C1435.99 281.307 1435.2 279.986 1433.98 278.878C1432.78 277.77 1431.16 277.216 1429.12 277.216C1427.35 277.216 1425.79 277.685 1424.46 278.622C1423.14 279.545 1422.11 280.866 1421.37 282.585C1420.63 284.29 1420.26 286.307 1420.26 288.636C1420.26 291.023 1420.62 293.082 1421.35 294.815C1422.07 296.548 1423.09 297.891 1424.42 298.842C1425.75 299.794 1427.32 300.27 1429.12 300.27C1430.33 300.27 1431.43 300.05 1432.41 299.609C1433.4 299.155 1434.23 298.509 1434.9 297.67C1435.58 296.832 1436.06 295.824 1436.33 294.645H1442.53C1442.3 296.761 1441.61 298.651 1440.46 300.312C1439.31 301.974 1437.77 303.281 1435.84 304.233C1433.92 305.185 1431.67 305.661 1429.08 305.661ZM1458.86 305.724C1456.79 305.724 1454.91 305.341 1453.24 304.574C1451.56 303.793 1450.23 302.663 1449.25 301.186C1448.29 299.709 1447.81 297.898 1447.81 295.753C1447.81 293.906 1448.16 292.386 1448.87 291.193C1449.58 290 1450.54 289.055 1451.75 288.359C1452.95 287.663 1454.3 287.138 1455.8 286.783C1457.29 286.428 1458.81 286.158 1460.35 285.973C1462.32 285.746 1463.91 285.561 1465.13 285.419C1466.35 285.263 1467.24 285.014 1467.79 284.673C1468.34 284.332 1468.62 283.778 1468.62 283.011V282.862C1468.62 281.001 1468.1 279.56 1467.05 278.537C1466.01 277.514 1464.46 277.003 1462.4 277.003C1460.26 277.003 1458.57 277.479 1457.33 278.43C1456.11 279.368 1455.26 280.412 1454.79 281.562L1448.81 280.199C1449.52 278.21 1450.55 276.605 1451.92 275.384C1453.3 274.148 1454.88 273.253 1456.67 272.699C1458.46 272.131 1460.34 271.847 1462.32 271.847C1463.62 271.847 1465.01 272.003 1466.47 272.315C1467.95 272.614 1469.33 273.168 1470.6 273.977C1471.9 274.787 1472.95 275.945 1473.78 277.45C1474.6 278.942 1475.01 280.881 1475.01 283.267V305H1468.79V300.526H1468.54C1468.12 301.349 1467.51 302.159 1466.68 302.955C1465.86 303.75 1464.8 304.411 1463.51 304.936C1462.22 305.462 1460.67 305.724 1458.86 305.724ZM1460.25 300.611C1462.01 300.611 1463.52 300.263 1464.77 299.567C1466.03 298.871 1466.99 297.962 1467.64 296.839C1468.31 295.703 1468.64 294.489 1468.64 293.196V288.977C1468.42 289.205 1467.98 289.418 1467.32 289.616C1466.68 289.801 1465.95 289.964 1465.13 290.107C1464.3 290.234 1463.5 290.355 1462.72 290.469C1461.94 290.568 1461.29 290.653 1460.76 290.724C1459.52 290.881 1458.39 291.143 1457.37 291.513C1456.36 291.882 1455.55 292.415 1454.94 293.111C1454.35 293.793 1454.05 294.702 1454.05 295.838C1454.05 297.415 1454.63 298.608 1455.8 299.418C1456.96 300.213 1458.44 300.611 1460.25 300.611ZM1505.68 285.888V291.406H1487.95V285.888H1505.68ZM1489.74 272.273V305H1483.5V272.273H1489.74ZM1510.13 272.273V305H1503.91V272.273H1510.13ZM1514.6 277.77V272.273H1542.21V277.77H1531.54V305H1525.31V277.77H1514.6ZM1544.32 266.882V261.364H1558.13V266.882H1544.32ZM1560.75 278.963H1572.51C1575.75 278.963 1578.5 279.489 1580.78 280.54C1583.05 281.591 1584.78 283.075 1585.97 284.993C1587.17 286.911 1587.76 289.169 1587.76 291.768C1587.76 294.368 1587.17 296.662 1585.97 298.651C1584.78 300.639 1583.05 302.195 1580.78 303.317C1578.5 304.439 1575.75 305 1572.51 305H1556.17V261.364H1562.77V299.46H1572.51C1574.38 299.46 1575.97 299.091 1577.28 298.352C1578.59 297.614 1579.58 296.655 1580.24 295.476C1580.92 294.297 1581.27 293.033 1581.27 291.683C1581.27 289.723 1580.51 288.04 1578.99 286.634C1577.48 285.213 1575.32 284.503 1572.51 284.503H1560.75V278.963Z" fill="#B2B2B2"/>
<path d="M112.91 94.3881V94.4381L0 336.918H62.83L81.68 296.398H206.98L225.83 336.918H288.66L144.33 26.9181L112.91 94.3881ZM144.33 161.868L180.72 239.988H107.99L144.33 161.868Z" fill="#BEAAFF"/>
<path d="M112.91 94.3881V94.4381L95.19 132.558C96.17 130.588 97.49 128.768 99.13 127.118C102.93 123.328 107.57 121.398 112.96 121.398C118.35 121.398 123 123.328 126.79 127.118C128.34 128.668 129.56 130.358 130.36 132.088L180.72 239.988H75.73C70.43 239.848 65.93 237.928 62.18 234.178C58.29 230.278 56.36 225.598 56.36 220.108C56.36 217.908 56.69 215.798 57.35 213.828L0 336.918H62.83L81.68 296.398H206.98L225.83 336.918H288.66L144.33 26.9181L112.91 94.3881Z" fill="#6145BC"/>
<path d="M112.91 94.3881V94.4381L95.1899 132.558C96.1699 130.588 97.4899 128.768 99.1299 127.118C102.93 123.328 107.57 121.398 112.96 121.398C118.35 121.398 123 123.328 126.79 127.118C128.34 128.668 129.56 130.358 130.36 132.088L193.52 267.518C194.32 269.768 194.69 272.208 194.69 274.778C194.69 280.738 192.58 285.848 188.36 290.068C184.28 294.148 179.45 296.258 173.83 296.398H206.98L225.83 336.918H288.66L144.33 26.9181L112.91 94.3881Z" fill="#412C85"/>
<path d="M274.947 26.9149L337.5 26.9149L392.15 156.978L360.055 228.075L274.947 26.9149Z" fill="#412C85"/>
<path d="M507.011 27.4758L444.864 26.531L315.555 332.85L375.176 333.756L507.011 27.4758Z" fill="#6145BC"/>
</svg>
