<svg width="917" height="215" viewBox="0 0 917 215" fill="none" xmlns="http://www.w3.org/2000/svg">
<path d="M195.52 180L213.88 82.8H238.36L256.48 180H236.68L233.44 159.48H219.16L215.8 180H195.52ZM221.08 146.64H231.4L226.24 108.72L221.08 146.64ZM261.854 199.56V184.8C262.974 184.88 264.014 184.92 264.974 184.92C266.014 185 266.974 185.04 267.854 185.04C269.774 185.04 271.494 184.88 273.014 184.56C274.614 184.24 275.974 183.72 277.094 183C278.214 182.36 279.054 181.44 279.614 180.24C280.254 179.12 280.574 177.72 280.574 176.04C280.574 174.84 280.494 173.8 280.334 172.92C280.254 171.96 280.134 171.04 279.974 170.16L258.134 82.8H278.054L286.454 122.76L290.414 148.8L293.294 122.64L300.374 82.8H320.534L300.614 172.2C299.494 177.32 298.134 181.64 296.534 185.16C294.934 188.76 292.974 191.64 290.654 193.8C288.334 195.96 285.494 197.52 282.134 198.48C278.854 199.44 274.854 199.92 270.134 199.92C268.934 199.92 267.654 199.88 266.294 199.8C264.934 199.72 263.454 199.64 261.854 199.56ZM322.179 150.96V138.36H353.379V150.96H322.179ZM360.845 180V82.8H419.045V180H397.925V98.16H381.965V180H360.845ZM430.742 200.16V186.6C433.222 186.6 435.262 186.44 436.862 186.12C438.542 185.8 439.782 185.2 440.582 184.32C441.462 183.44 441.902 182.24 441.902 180.72C441.902 179.36 441.662 177.72 441.182 175.8C440.702 173.8 440.102 171.56 439.382 169.08L423.062 110.64H441.422L450.182 150.72L456.782 110.64H475.262L459.302 181.68C458.262 186.48 456.622 190.2 454.382 192.84C452.142 195.56 449.382 197.44 446.102 198.48C442.902 199.6 439.262 200.16 435.182 200.16H430.742ZM501.691 181.2C495.291 181.04 490.371 179.88 486.931 177.72C483.571 175.56 481.291 172.44 480.091 168.36C478.891 164.2 478.291 159.24 478.291 153.48V114.72C478.291 108.32 478.931 103.2 480.211 99.36C481.571 95.52 483.411 92.56 485.731 90.48C488.131 88.4 490.891 86.8 494.011 85.68C497.131 84.56 500.251 83.68 503.371 83.04C506.571 82.4 509.651 81.68 512.611 80.88C515.651 80 518.451 78.72 521.011 77.04L521.731 92.76C519.091 94.12 516.291 95.12 513.331 95.76C510.451 96.32 507.611 96.84 504.811 97.32C502.091 97.72 499.571 98.4 497.251 99.36C495.171 100.16 493.691 101.68 492.811 103.92C491.931 106.08 491.491 109.08 491.491 112.92V118.2C492.531 117 493.811 116 495.331 115.2C496.931 114.4 498.771 113.8 500.851 113.4C503.011 113 505.371 112.8 507.931 112.8C512.171 112.8 515.611 113.6 518.251 115.2C520.891 116.8 522.811 119.44 524.011 123.12C525.291 126.8 525.931 131.8 525.931 138.12V155.04C525.931 162.16 524.891 167.64 522.811 171.48C520.811 175.24 517.971 177.8 514.291 179.16C510.691 180.52 506.491 181.2 501.691 181.2ZM502.531 168.6C504.051 168.6 505.131 168.2 505.771 167.4C506.491 166.6 506.971 165.12 507.211 162.96C507.451 160.72 507.571 157.44 507.571 153.12V134.64C507.571 132 507.451 129.92 507.211 128.4C506.971 126.8 506.491 125.68 505.771 125.04C505.051 124.4 504.011 124.08 502.651 124.08C501.771 124.08 500.931 124.36 500.131 124.92C499.411 125.4 498.811 126.24 498.331 127.44C497.851 128.56 497.451 130.16 497.131 132.24V153C497.131 157.24 497.251 160.48 497.491 162.72C497.731 164.96 498.251 166.52 499.051 167.4C499.851 168.2 501.011 168.6 502.531 168.6ZM527.452 180.72V166.92C530.012 166.92 532.092 166.52 533.692 165.72C535.372 164.92 536.692 163.56 537.652 161.64C538.692 159.64 539.492 156.96 540.052 153.6C540.612 150.16 541.092 145.8 541.492 140.52L543.772 110.64H587.812V180H568.252V123.84H560.332L558.652 144.36C558.092 151.56 557.292 157.52 556.252 162.24C555.212 166.96 553.692 170.68 551.692 173.4C549.692 176.04 547.012 177.92 543.652 179.04C540.292 180.16 536.012 180.72 530.812 180.72H527.452ZM596.498 180V110.64H611.978V147.72L630.098 110.64H645.338V180H629.498V143.28L611.858 180H596.498ZM653.836 180V110.64H673.396V138H676.276L686.836 110.64H707.836L694.156 143.4L708.196 180H687.556L676.276 149.28H673.396V180H653.836ZM724.119 181.2C720.599 181.2 717.639 180.36 715.239 178.68C712.839 177 711.039 174.88 709.839 172.32C708.639 169.68 708.039 167 708.039 164.28C708.039 159.96 708.879 156.32 710.559 153.36C712.319 150.4 714.599 147.92 717.399 145.92C720.199 143.92 723.279 142.24 726.639 140.88C729.999 139.44 733.319 138.16 736.599 137.04V130.08C736.599 128.88 736.479 127.84 736.239 126.96C735.999 126 735.599 125.28 735.039 124.8C734.479 124.24 733.639 123.96 732.519 123.96C731.399 123.96 730.519 124.2 729.879 124.68C729.319 125.16 728.919 125.84 728.679 126.72C728.439 127.52 728.279 128.44 728.199 129.48L727.719 134.52L709.479 133.8C709.879 125.48 712.079 119.36 716.079 115.44C720.159 111.44 726.239 109.44 734.319 109.44C741.359 109.44 746.599 111.4 750.039 115.32C753.559 119.16 755.319 124.16 755.319 130.32V162.72C755.319 165.6 755.359 168.12 755.439 170.28C755.599 172.44 755.759 174.32 755.919 175.92C756.159 177.52 756.359 178.88 756.519 180H738.999C738.759 178.16 738.479 176.16 738.159 174C737.839 171.84 737.599 170.56 737.439 170.16C736.639 173.04 735.119 175.6 732.879 177.84C730.719 180.08 727.799 181.2 724.119 181.2ZM731.079 168C731.879 168 732.599 167.84 733.239 167.52C733.959 167.2 734.599 166.76 735.159 166.2C735.719 165.64 736.199 165.08 736.599 164.52V145.56C734.999 146.52 733.519 147.52 732.159 148.56C730.799 149.52 729.639 150.6 728.679 151.8C727.719 153 726.959 154.32 726.399 155.76C725.919 157.12 725.679 158.68 725.679 160.44C725.679 162.76 726.159 164.6 727.119 165.96C728.079 167.32 729.399 168 731.079 168ZM771.754 180V123.84H759.154V110.64H803.794V123.84H791.194V180H771.754ZM830.25 181.2C825.29 181.2 820.97 180.36 817.29 178.68C813.69 177 810.89 174.48 808.89 171.12C806.97 167.76 806.01 163.56 806.01 158.52V132.12C806.01 127.08 806.97 122.88 808.89 119.52C810.89 116.16 813.69 113.64 817.29 111.96C820.97 110.28 825.29 109.44 830.25 109.44C835.21 109.44 839.49 110.28 843.09 111.96C846.77 113.64 849.61 116.16 851.61 119.52C853.61 122.88 854.61 127.08 854.61 132.12V158.52C854.61 163.56 853.61 167.76 851.61 171.12C849.61 174.48 846.77 177 843.09 178.68C839.49 180.36 835.21 181.2 830.25 181.2ZM830.37 168.24C831.65 168.24 832.65 167.92 833.37 167.28C834.09 166.56 834.57 165.6 834.81 164.4C835.13 163.12 835.29 161.6 835.29 159.84V130.8C835.29 129.04 835.13 127.56 834.81 126.36C834.57 125.08 834.09 124.12 833.37 123.48C832.65 122.76 831.65 122.4 830.37 122.4C829.09 122.4 828.09 122.76 827.37 123.48C826.65 124.12 826.13 125.08 825.81 126.36C825.49 127.56 825.33 129.04 825.33 130.8V159.84C825.33 161.6 825.49 163.12 825.81 164.4C826.13 165.6 826.65 166.56 827.37 167.28C828.09 167.92 829.09 168.24 830.37 168.24ZM861.857 202.8V110.64H881.417V115.68C883.737 113.6 886.217 112.04 888.857 111C891.497 109.96 894.017 109.44 896.417 109.44C899.057 109.44 901.297 109.96 903.137 111C905.057 112.04 906.617 113.52 907.817 115.44C909.017 117.28 909.897 119.44 910.457 121.92C911.017 124.4 911.297 127.04 911.297 129.84V159.72C911.297 164.04 910.697 167.8 909.497 171C908.377 174.2 906.697 176.72 904.457 178.56C902.217 180.32 899.457 181.2 896.177 181.2C893.697 181.2 891.177 180.64 888.617 179.52C886.137 178.32 883.737 176.72 881.417 174.72V202.8H861.857ZM886.577 168.6C887.857 168.6 888.857 168.24 889.577 167.52C890.297 166.8 890.817 165.88 891.137 164.76C891.537 163.56 891.737 162.24 891.737 160.8V128.4C891.737 127.04 891.577 125.84 891.257 124.8C890.937 123.68 890.417 122.8 889.697 122.16C888.977 121.52 888.057 121.2 886.937 121.2C885.897 121.2 884.897 121.44 883.937 121.92C883.057 122.32 882.217 122.88 881.417 123.6V166.8C882.297 167.36 883.137 167.8 883.937 168.12C884.817 168.44 885.697 168.6 886.577 168.6Z" fill="white"/>
<path d="M151 24.2617L175.708 40.3799L177 174H12V64H43V11H151V24.2617Z" fill="#E5E5E5"/>
<path d="M140.147 0.00700617C141.425 -0.0604176 142.734 0.35797 143.77 1.29802L182.659 36.6076C184.23 38.0343 185.008 40.0221 184.948 42.0031H185V171.003C185 178.614 178.926 184.807 171.361 184.998C171.241 185.001 171.121 185.003 171 185.003H14C12.7585 185.18 11.539 185.166 10.3691 184.984C4.5876 184.657 0 179.866 0 174.003H0.0527344C0.0182549 173.627 0 173.246 0 172.861V68.0031C1.12752e-06 60.2711 6.26801 54.0031 14 54.0031H31V14.0031C31 6.27111 37.268 0.00309992 45 0.00309992H140C140.049 0.00309994 140.098 0.00558656 140.147 0.00700617ZM14 174.003H31V68.0031H14V174.003ZM45 171.003H171V56.0031H147C139.389 56.0031 133.197 49.9294 133.005 42.3644C133.002 42.2444 133 42.1239 133 42.0031V14.0031H45V171.003ZM110.82 86.4836H117.26C124.446 86.4836 130.513 87.6502 135.46 89.9836C140.5 92.3169 144.28 95.9097 146.8 100.763C149.413 105.523 150.72 111.683 150.72 119.243C150.72 126.15 149.787 131.75 147.92 136.043C146.147 140.336 143.627 143.65 140.36 145.984C137.094 148.317 133.267 149.903 128.88 150.743C124.587 151.583 119.966 152.003 115.02 152.003H85.7598V55.6828H68.8203V38.6027H110.82V86.4836ZM110.82 135.623H115.16C118.333 135.623 120.807 135.016 122.58 133.803C124.447 132.59 125.753 130.723 126.5 128.203C127.34 125.683 127.713 122.509 127.62 118.683C127.527 114.483 126.64 110.983 124.96 108.183C123.28 105.29 119.873 103.843 114.74 103.843H110.82V135.623ZM147 42.0031H167.101L147 21.9025V42.0031Z" fill="url(#paint0_linear_690_1987)"/>
<defs>
<linearGradient id="paint0_linear_690_1987" x1="17" y1="111.5" x2="185" y2="109.003" gradientUnits="userSpaceOnUse">
<stop stop-color="#D30295"/>
<stop offset="1" stop-color="#1936C7"/>
</linearGradient>
</defs>
</svg>
