<svg width="64" height="64" viewBox="0 0 64 64" fill="none" xmlns="http://www.w3.org/2000/svg">
<g filter="url(#filter0_d_3037_1226)">
<path d="M51.8548 8.30552C51.6789 8.12922 51.4944 7.96325 51.3012 7.80764C51.2834 7.79482 51.2646 7.77973 51.2447 7.76237C45.8861 2.59579 39.4542 0.00833923 31.9492 0C24.2288 0.00833923 17.6463 2.73535 12.2017 8.18104L12.1566 8.21499C6.71947 13.6786 4.00062 20.2831 4 28.0283C4.008 35.7461 6.73438 42.3317 12.1791 47.785C12.4011 48.0076 12.6195 48.2226 12.8344 48.43C12.8582 48.4511 12.8808 48.4699 12.9022 48.4866C18.212 53.4953 24.5685 55.9997 31.9718 56C39.6015 56.0002 46.1162 53.3223 51.5158 47.9661L51.5271 47.9547C51.5521 47.9394 51.5784 47.9206 51.6062 47.8982C51.7536 47.7979 51.8591 47.6622 51.9225 47.4908C51.9932 47.3275 52.0083 47.1577 51.9677 46.9816C51.9527 46.8931 51.9225 46.8101 51.8773 46.7327L51.7192 46.5177L40.5802 35.3607C40.4077 35.1874 40.1968 35.1007 39.9475 35.1004C39.6982 35.1007 39.4836 35.1874 39.3036 35.3607C36.9709 37.7032 34.6361 39.7438 32.2994 41.4823C30.0462 39.8481 27.8018 37.9358 25.5663 35.7454L25.555 35.7341C25.3292 35.5154 25.1033 35.2966 24.8771 35.0778C24.8771 35.0778 24.8734 35.074 24.8658 35.0665C22.5866 32.7758 20.5983 30.4901 18.9009 28.2093C20.5621 25.8866 22.5165 23.5744 24.7642 21.273V21.2617C24.9901 21.0355 25.2085 20.8092 25.4194 20.5827C25.427 20.5828 25.4308 20.579 25.4307 20.5714C27.7625 18.2529 30.086 16.2349 32.401 14.5177C34.7192 16.2378 37.0389 18.2595 39.3601 20.5827C39.5786 20.8016 39.797 21.0242 40.0153 21.2504C40.1965 21.4365 40.4111 21.5308 40.6593 21.5332C40.914 21.5347 41.1287 21.4442 41.3032 21.2617L52.3405 10.2065C52.3522 10.2031 52.3598 10.1955 52.3631 10.1839C52.4464 10.1113 52.5104 10.0245 52.5552 9.92362C52.5671 9.89984 52.5784 9.87344 52.5891 9.84441C52.6031 9.79729 52.6144 9.74826 52.6229 9.69731C52.6295 9.65718 52.6333 9.61569 52.6343 9.57284C52.6347 9.56718 52.6347 9.55964 52.6343 9.55021C52.6351 9.50254 52.6313 9.4535 52.6229 9.40311L52.5665 9.21075C52.5514 9.17303 52.5326 9.13532 52.51 9.0976C52.4924 9.0605 52.4699 9.02278 52.4422 8.98444C52.2677 8.74941 52.0719 8.5231 51.8548 8.30552ZM50.3974 9.471C50.4219 9.49555 50.4445 9.51818 50.4652 9.53889L40.6706 19.338C40.663 19.3305 40.6517 19.3192 40.6367 19.3041C38.3784 17.0406 36.119 15.0567 33.8584 13.3522C36.0337 11.9016 38.2103 10.7248 40.3881 9.82178H40.3994C44.8514 7.96154 48.0937 7.75409 50.1263 9.19943C50.2154 9.28866 50.3057 9.37918 50.3974 9.471ZM39.699 8.1471C37.2283 9.16905 34.7617 10.5269 32.2994 12.2206C29.7045 10.4001 27.1062 8.95176 24.5043 7.87553H24.5156C21.7966 6.73836 19.4543 6.15373 17.4888 6.12164C21.7115 3.25265 26.5316 1.81559 31.9492 1.81047C37.5245 1.81574 42.4651 3.34332 46.771 6.39321C44.8014 6.41605 42.4441 7.00068 39.699 8.1471ZM49.6744 47.0269C47.6305 48.1434 44.5501 47.8417 40.4333 46.1216C38.2461 45.2045 36.0582 44.0202 33.8697 42.5686C35.8949 41.0256 37.9171 39.2604 39.9363 37.273L49.6744 47.0269ZM39.7329 47.7963C42.5019 48.9521 44.878 49.5367 46.8614 49.5502C42.5405 52.6429 37.5773 54.1893 31.9718 54.1895C26.5073 54.1913 21.6533 52.7316 17.4097 49.8105C19.3798 49.7928 21.7372 49.212 24.4817 48.0679C27.0982 46.9842 29.7078 45.5283 32.3107 43.7001C34.7855 45.3939 37.2595 46.7593 39.7329 47.7963ZM23.8152 9.55021C26.1622 10.5223 28.5082 11.8085 30.8533 13.4088C28.6239 15.1038 26.387 17.0689 24.1428 19.3041C24.1438 19.3119 24.1401 19.3157 24.1315 19.3154C23.9187 19.5436 23.7003 19.7737 23.4763 20.0057H23.465C21.3144 22.2147 19.4241 24.4287 17.7938 26.6478C16.1633 24.2725 14.8566 21.8962 13.8737 19.5191C11.913 14.8208 11.7925 11.4677 13.5122 9.45969L13.5348 9.43706C13.5444 9.42513 13.552 9.41381 13.5574 9.40311C13.5868 9.37305 13.6131 9.34288 13.6365 9.31259C15.6227 7.46163 19.0156 7.54084 23.8152 9.55021ZM12.2017 20.2206V20.2093C13.2683 22.7913 14.6993 25.375 16.4947 27.9604C14.6842 30.5524 13.2419 33.1399 12.1678 35.7228C11.0031 38.52 10.4157 40.9151 10.4055 42.9081C7.34561 38.5853 5.81296 33.6254 5.80754 28.0283C5.80713 22.3794 7.35108 17.378 10.4394 13.024C10.4479 15.0254 11.0353 17.4242 12.2017 20.2206ZM13.8398 36.4243V36.413C14.7959 34.1175 16.0537 31.8167 17.6131 29.5106C19.3293 31.7888 21.3251 34.0707 23.6006 36.3564C23.6083 36.363 23.6119 36.3678 23.6119 36.3678C23.8397 36.5885 24.0694 36.811 24.301 37.0354C26.4439 39.1356 28.5941 40.9876 30.7517 42.5912C28.4356 44.1626 26.1159 45.4299 23.7926 46.3932C19.3743 48.2342 16.1471 48.4529 14.111 47.0495L14.0884 47.0382C13.922 46.9137 13.7639 46.7742 13.6139 46.6195C13.6139 46.6195 13.6101 46.617 13.6026 46.6082C11.7552 44.6331 11.8343 41.2384 13.8398 36.4243ZM56.882 17.256C56.6825 17.2886 56.5093 17.3754 56.3623 17.5163L45.7543 28.1301C45.5813 28.3107 45.4947 28.5257 45.4944 28.7751C45.4941 29.0237 45.5807 29.2349 45.7543 29.4088L56.3623 40.0226C56.5094 40.1712 56.6827 40.258 56.882 40.2829C57.0838 40.313 57.2721 40.2753 57.4468 40.1697C57.6267 40.0734 57.7548 39.9301 57.8309 39.7397C59.267 36.3906 59.99 32.7357 60 28.7751C59.99 24.8144 59.267 21.1558 57.8309 17.7991C57.7548 17.6164 57.6267 17.4731 57.4468 17.3692C57.2721 17.2712 57.0839 17.2334 56.882 17.256ZM58.1924 28.7751C58.188 31.9898 57.6796 34.9884 56.6673 37.7709L47.6748 28.7751L56.6673 19.768C57.6796 22.5581 58.188 25.5604 58.1924 28.7751Z" fill="#00396A"/>
</g>
<defs>
<filter id="filter0_d_3037_1226" x="0" y="0" width="64" height="64" filterUnits="userSpaceOnUse" color-interpolation-filters="sRGB">
<feFlood flood-opacity="0" result="BackgroundImageFix"/>
<feColorMatrix in="SourceAlpha" type="matrix" values="0 0 0 0 0 0 0 0 0 0 0 0 0 0 0 0 0 0 127 0" result="hardAlpha"/>
<feOffset dy="4"/>
<feGaussianBlur stdDeviation="2"/>
<feComposite in2="hardAlpha" operator="out"/>
<feColorMatrix type="matrix" values="0 0 0 0 1 0 0 0 0 1 0 0 0 0 1 0 0 0 0.25 0"/>
<feBlend mode="normal" in2="BackgroundImageFix" result="effect1_dropShadow_3037_1226"/>
<feBlend mode="normal" in="SourceGraphic" in2="effect1_dropShadow_3037_1226" result="shape"/>
</filter>
</defs>
</svg>
