<svg width="56" height="56" viewBox="0 0 56 56" fill="none" xmlns="http://www.w3.org/2000/svg">
<path d="M47.8548 8.30552C47.6789 8.12922 47.4944 7.96325 47.3012 7.80764C47.2834 7.79482 47.2646 7.77973 47.2447 7.76237C41.8861 2.59579 35.4542 0.00833923 27.9492 0C20.2288 0.00833923 13.6463 2.73535 8.20174 8.18104L8.15655 8.21499C2.71947 13.6786 0.000617813 20.2831 0 28.0283C0.00800215 35.7461 2.73438 42.3317 8.17914 47.785C8.40114 48.0076 8.61955 48.2226 8.83437 48.43C8.85823 48.4511 8.88083 48.4699 8.90215 48.4866C14.212 53.4953 20.5685 55.9997 27.9718 56C35.6015 56.0002 42.1162 53.3223 47.5158 47.9661L47.5271 47.9547C47.5521 47.9394 47.5784 47.9206 47.6062 47.8982C47.7536 47.7979 47.8591 47.6622 47.9225 47.4908C47.9932 47.3275 48.0083 47.1577 47.9677 46.9816C47.9527 46.8931 47.9225 46.8101 47.8773 46.7327L47.7192 46.5177L36.5802 35.3607C36.4077 35.1874 36.1968 35.1007 35.9475 35.1004C35.6982 35.1007 35.4836 35.1874 35.3036 35.3607C32.9709 37.7032 30.6361 39.7438 28.2994 41.4823C26.0462 39.8481 23.8018 37.9358 21.5663 35.7454L21.555 35.7341C21.3292 35.5154 21.1033 35.2966 20.8771 35.0778C20.8771 35.0778 20.8734 35.074 20.8658 35.0665C18.5866 32.7758 16.5983 30.4901 14.9009 28.2093C16.5621 25.8866 18.5165 23.5744 20.7642 21.273V21.2617C20.9901 21.0355 21.2085 20.8092 21.4194 20.5827C21.427 20.5828 21.4308 20.579 21.4307 20.5714C23.7625 18.2529 26.086 16.2349 28.401 14.5177C30.7192 16.2378 33.0389 18.2595 35.3601 20.5827C35.5786 20.8016 35.797 21.0242 36.0153 21.2504C36.1965 21.4365 36.4111 21.5308 36.6593 21.5332C36.914 21.5347 37.1287 21.4442 37.3032 21.2617L48.3405 10.2065C48.3522 10.2031 48.3598 10.1955 48.3631 10.1839C48.4464 10.1113 48.5104 10.0245 48.5552 9.92362C48.5671 9.89984 48.5784 9.87344 48.5891 9.84441C48.6031 9.79729 48.6144 9.74826 48.6229 9.69731C48.6295 9.65718 48.6333 9.61569 48.6343 9.57284C48.6347 9.56718 48.6347 9.55964 48.6343 9.55021C48.6351 9.50254 48.6313 9.4535 48.6229 9.40311L48.5665 9.21075C48.5514 9.17303 48.5326 9.13532 48.51 9.0976C48.4924 9.0605 48.4699 9.02278 48.4422 8.98444C48.2677 8.74941 48.0719 8.5231 47.8548 8.30552ZM46.3974 9.471C46.4219 9.49555 46.4445 9.51818 46.4652 9.53889L36.6706 19.338C36.663 19.3305 36.6517 19.3192 36.6367 19.3041C34.3784 17.0406 32.119 15.0567 29.8584 13.3522C32.0337 11.9016 34.2103 10.7248 36.3881 9.82178H36.3994C40.8514 7.96154 44.0937 7.75409 46.1263 9.19943C46.2154 9.28866 46.3057 9.37918 46.3974 9.471ZM35.699 8.1471C33.2283 9.16905 30.7617 10.5269 28.2994 12.2206C25.7045 10.4001 23.1062 8.95176 20.5043 7.87553H20.5156C17.7966 6.73836 15.4543 6.15373 13.4888 6.12164C17.7115 3.25265 22.5316 1.81559 27.9492 1.81047C33.5245 1.81574 38.4651 3.34332 42.771 6.39321C40.8014 6.41605 38.4441 7.00068 35.699 8.1471ZM45.6744 47.0269C43.6305 48.1434 40.5501 47.8417 36.4333 46.1216C34.2461 45.2045 32.0582 44.0202 29.8697 42.5686C31.8949 41.0256 33.9171 39.2604 35.9363 37.273L45.6744 47.0269ZM35.7329 47.7963C38.5019 48.9521 40.878 49.5367 42.8614 49.5502C38.5405 52.6429 33.5773 54.1893 27.9718 54.1895C22.5073 54.1913 17.6533 52.7316 13.4097 49.8105C15.3798 49.7928 17.7372 49.212 20.4817 48.0679C23.0982 46.9842 25.7078 45.5283 28.3107 43.7001C30.7855 45.3939 33.2595 46.7593 35.7329 47.7963ZM19.8152 9.55021C22.1622 10.5223 24.5082 11.8085 26.8533 13.4088C24.6239 15.1038 22.387 17.0689 20.1428 19.3041C20.1438 19.3119 20.1401 19.3157 20.1315 19.3154C19.9187 19.5436 19.7003 19.7737 19.4763 20.0057H19.465C17.3144 22.2147 15.4241 24.4287 13.7938 26.6478C12.1633 24.2725 10.8566 21.8962 9.87371 19.5191C7.91298 14.8208 7.79248 11.4677 9.51221 9.45969L9.5348 9.43706C9.54442 9.42513 9.55196 9.41381 9.5574 9.40311C9.58679 9.37305 9.61314 9.34288 9.63647 9.31259C11.6227 7.46163 15.0156 7.54084 19.8152 9.55021ZM8.20174 20.2206V20.2093C9.26829 22.7913 10.6993 25.375 12.4947 27.9604C10.6842 30.5524 9.2419 33.1399 8.16784 35.7228C7.00315 38.52 6.4157 40.9151 6.40549 42.9081C3.34561 38.5853 1.81296 33.6254 1.80754 28.0283C1.80713 22.3794 3.35108 17.378 6.43938 13.024C6.44786 15.0254 7.03531 17.4242 8.20174 20.2206ZM9.83982 36.4243V36.413C10.7959 34.1175 12.0537 31.8167 13.6131 29.5106C15.3293 31.7888 17.3251 34.0707 19.6006 36.3564C19.6083 36.363 19.6119 36.3678 19.6119 36.3678C19.8397 36.5885 20.0694 36.811 20.301 37.0354C22.4439 39.1356 24.5941 40.9876 26.7517 42.5912C24.4356 44.1626 22.1159 45.4299 19.7926 46.3932C15.3743 48.2342 12.1471 48.4529 10.111 47.0495L10.0884 47.0382C9.92205 46.9137 9.76389 46.7742 9.61388 46.6195C9.61388 46.6208 9.61012 46.617 9.60259 46.6082C7.75524 44.6331 7.83431 41.2384 9.83982 36.4243ZM52.882 17.256C52.6825 17.2886 52.5093 17.3754 52.3623 17.5163L41.7543 28.1301C41.5813 28.3107 41.4947 28.5257 41.4944 28.7751C41.4941 29.0237 41.5807 29.2349 41.7543 29.4088L52.3623 40.0226C52.5094 40.1712 52.6827 40.258 52.882 40.2829C53.0838 40.313 53.2721 40.2753 53.4468 40.1697C53.6267 40.0734 53.7548 39.9301 53.8309 39.7397C55.267 36.3906 55.99 32.7357 56 28.7751C55.99 24.8144 55.267 21.1558 53.8309 17.7991C53.7548 17.6164 53.6267 17.4731 53.4468 17.3692C53.2721 17.2712 53.0839 17.2334 52.882 17.256ZM54.1924 28.7751C54.188 31.9898 53.6796 34.9884 52.6673 37.7709L43.6748 28.7751L52.6673 19.768C53.6796 22.5581 54.188 25.5604 54.1924 28.7751Z" fill="white"/>
</svg>
