<svg width="195" height="176" viewBox="0 0 195 176" fill="none" xmlns="http://www.w3.org/2000/svg">
<path d="M111.898 165.694H108.044V175.553H109.453V172.56H111.898C113.176 172.56 114.18 172.26 114.91 171.66C115.641 171.047 116.006 170.206 116.006 169.137C116.006 168.067 115.641 167.226 114.91 166.613C114.18 166 113.176 165.694 111.898 165.694ZM111.859 166.926C112.746 166.926 113.424 167.115 113.893 167.494C114.363 167.872 114.597 168.42 114.597 169.137C114.597 169.841 114.363 170.389 113.893 170.78C113.424 171.158 112.746 171.347 111.859 171.347H109.453V166.926H111.859ZM130.795 166.926V175.553H132.184V166.926H135.569V165.694H127.431V166.926H130.795ZM125.611 175.553H127.078L122.599 165.694H121.21L116.749 175.553H118.197L119.273 173.088H124.516L125.611 175.553ZM119.762 171.954L121.894 167.122L124.027 171.954H119.762ZM141.711 165.576C140.72 165.576 139.827 165.798 139.031 166.242C138.236 166.672 137.61 167.272 137.153 168.041C136.697 168.811 136.468 169.672 136.468 170.624C136.468 171.576 136.697 172.436 137.153 173.206C137.61 173.975 138.236 174.575 139.031 175.006C139.827 175.449 140.72 175.671 141.711 175.671C142.702 175.671 143.596 175.449 144.391 175.006C145.187 174.575 145.813 173.975 146.269 173.206C146.713 172.436 146.934 171.576 146.934 170.624C146.934 169.658 146.713 168.798 146.269 168.041C145.813 167.272 145.187 166.672 144.391 166.242C143.596 165.798 142.702 165.576 141.711 165.576ZM145.037 168.687C145.363 169.261 145.526 169.906 145.526 170.624C145.526 171.341 145.363 171.986 145.037 172.56C144.698 173.134 144.241 173.584 143.667 173.91C143.094 174.249 142.441 174.419 141.711 174.419C140.994 174.419 140.342 174.249 139.755 173.91C139.168 173.584 138.705 173.134 138.366 172.56C138.04 171.986 137.877 171.341 137.877 170.624C137.877 169.906 138.04 169.261 138.366 168.687C138.705 168.113 139.168 167.663 139.755 167.337C140.342 166.998 140.994 166.828 141.711 166.828C142.441 166.828 143.094 166.998 143.667 167.337C144.241 167.663 144.698 168.113 145.037 168.687ZM157.185 169.137C157.185 168.067 156.82 167.226 156.09 166.613C155.359 166 154.355 165.694 153.077 165.694H149.223V175.553H150.632V172.56H153.077C154.355 172.56 155.359 172.26 156.09 171.66C156.82 171.047 157.185 170.206 157.185 169.137ZM155.777 169.137C155.777 169.841 155.542 170.389 155.072 170.78C154.603 171.158 153.925 171.347 153.038 171.347H150.632V166.926H153.038C153.925 166.926 154.603 167.115 155.072 167.494C155.542 167.872 155.777 168.42 155.777 169.137ZM43.8593 175.553V165.694H42.4508V175.553H43.8593ZM45.3851 166.926H48.7695V175.553H50.1584V166.926H53.5427V165.694H45.3851V166.926ZM67.4321 165.694H66.141L60.3114 173.304V165.694H58.9029V175.553H60.2136L66.0628 167.963V175.553H67.4321V165.694ZM85.4493 166.926H88.8336V165.694H80.6955V166.926H84.0603V175.553H85.4493V166.926ZM78.9936 165.694H77.5851V169.939H71.912V165.694H70.5035V175.553H71.912V171.152H77.5851V175.553H78.9936V165.694ZM97.6954 175.553V174.321H91.944V171.152H96.8933V169.939H91.944V166.926H97.4998V165.694H90.5355V175.553H97.6954ZM106.381 165.694H99.906V175.553H101.314L101.295 166.926H106.362L106.381 165.694ZM106.068 122.872C104.712 121.098 102.99 119.742 100.904 118.803C98.817 117.864 96.4434 117.394 93.7829 117.394C90.8876 117.394 88.2793 118.001 85.9579 119.213C83.6365 120.426 81.8171 122.122 80.4999 124.3C79.1827 126.478 78.5241 128.949 78.5241 131.714C78.5241 134.479 79.1827 136.95 80.4999 139.128C81.8171 141.306 83.6365 143.001 85.9579 144.214C88.2793 145.427 90.8876 146.034 93.7829 146.034C96.4434 146.034 98.817 145.564 100.904 144.625C102.99 143.686 104.712 142.33 106.068 140.556L100.239 135.352C98.5431 137.491 96.5477 138.561 94.2524 138.561C92.3222 138.561 90.7703 137.941 89.5965 136.702C88.4228 135.463 87.8359 133.801 87.8359 131.714C87.8359 129.627 88.4228 127.964 89.5965 126.725C90.7703 125.487 92.3222 124.867 94.2524 124.867C96.5477 124.867 98.5431 125.936 100.239 128.075L106.068 122.872ZM41.5509 119.233C39.2034 120.459 37.3645 122.161 36.0342 124.339C34.704 126.517 34.0389 128.975 34.0389 131.714C34.0389 134.453 34.704 136.911 36.0342 139.089C37.3645 141.267 39.2034 142.969 41.5509 144.195C43.8984 145.421 46.5458 146.034 49.4933 146.034C52.4537 146.034 55.1012 145.421 57.4357 144.195C59.7832 142.969 61.6221 141.267 62.9523 139.089C64.2826 136.911 64.9477 134.453 64.9477 131.714C64.9477 128.975 64.2826 126.517 62.9523 124.339C61.6221 122.161 59.7832 120.459 57.4357 119.233C55.1012 118.007 52.4537 117.394 49.4933 117.394C46.5458 117.394 43.8984 118.007 41.5509 119.233ZM44.1723 128.095C44.72 127.065 45.4569 126.269 46.3828 125.708C47.3088 125.147 48.3456 124.867 49.4933 124.867C50.6409 124.867 51.6778 125.147 52.6037 125.708C53.5297 126.269 54.2665 127.065 54.8143 128.095C55.362 129.125 55.6359 130.331 55.6359 131.714C55.6359 133.096 55.362 134.303 54.8143 135.333C54.2665 136.363 53.5297 137.159 52.6037 137.72C51.6778 138.28 50.6409 138.561 49.4933 138.561C48.3456 138.561 47.3088 138.28 46.3828 137.72C45.4569 137.159 44.72 136.363 44.1723 135.333C43.6245 134.303 43.3506 133.096 43.3506 131.714C43.3506 130.331 43.6245 129.125 44.1723 128.095ZM0 145.408H9.39003L11.2289 140.634H21.6362L23.4751 145.408H33.0216L21.0493 118.02H11.9723L0 145.408ZM19.0931 133.983H13.772L16.4325 127.097L19.0931 133.983ZM169.02 118.02V145.408H183.458C187.083 145.408 189.913 144.612 191.948 143.021C193.982 141.43 195 139.239 195 136.448C195 133.761 194.106 131.707 192.32 130.286C190.533 128.864 187.97 128.154 184.631 128.154H178.098V124.984H192.769V118.02H169.02ZM182.832 134.57C184.762 134.57 185.727 135.274 185.727 136.683C185.727 137.413 185.473 137.974 184.964 138.365C184.455 138.756 183.745 138.952 182.832 138.952H178.098V134.57H182.832ZM137.681 118.02V145.408H146.758V125.18H155.092V145.408H164.169V118.02H137.681ZM134.903 122.872C133.547 121.098 131.826 119.742 129.739 118.803C127.652 117.864 125.279 117.394 122.618 117.394C119.723 117.394 117.115 118.001 114.793 119.213C112.472 120.426 110.652 122.122 109.335 124.3C108.018 126.478 107.359 128.949 107.359 131.714C107.359 134.479 108.018 136.95 109.335 139.128C110.652 141.306 112.472 143.001 114.793 144.214C117.115 145.427 119.723 146.034 122.618 146.034C125.279 146.034 127.652 145.564 129.739 144.625C131.826 143.686 133.547 142.33 134.903 140.556L129.074 135.352C127.378 137.491 125.383 138.561 123.088 138.561C121.157 138.561 119.605 137.941 118.432 136.702C117.258 135.463 116.671 133.801 116.671 131.714C116.671 129.627 117.258 127.964 118.432 126.725C119.605 125.487 121.157 124.867 123.088 124.867C125.383 124.867 127.378 125.936 129.074 128.075L134.903 122.872ZM133.358 14.3588C133.053 14.054 132.734 13.7671 132.399 13.4981C132.369 13.4759 132.336 13.4498 132.302 13.4198C123.022 4.48769 111.885 0.0144171 98.8887 0C85.5199 0.0144171 74.1214 4.72896 64.6934 14.1436L64.6151 14.2023C55.2001 23.648 50.492 35.066 50.491 48.4561C50.5048 61.7989 55.2259 73.1842 64.6542 82.6122C65.0387 82.9969 65.4169 83.3686 65.7889 83.7272C65.8302 83.7637 65.8693 83.7963 65.9062 83.825C75.1009 92.4842 86.1081 96.814 98.9279 96.8145C112.14 96.8149 123.421 92.1851 132.771 82.9252L132.791 82.9056C132.834 82.8792 132.879 82.8466 132.928 82.8078C133.183 82.6345 133.365 82.3998 133.475 82.1035C133.598 81.8212 133.624 81.5277 133.554 81.2232C133.528 81.0702 133.475 80.9268 133.397 80.7929L133.123 80.4212L113.835 61.1326C113.536 60.8331 113.171 60.6831 112.739 60.6827C112.307 60.6831 111.936 60.8331 111.624 61.1326C107.585 65.1825 103.542 68.7102 99.4952 71.7159C95.5935 68.8906 91.7071 65.5845 87.8359 61.7977L87.8163 61.7782C87.4254 61.4001 87.0341 61.0219 86.6426 60.6435C86.6426 60.6435 86.6362 60.6369 86.623 60.624C82.6762 56.6638 79.2331 52.7122 76.294 48.7692C79.1705 44.7535 82.5548 40.7562 86.4469 36.7774V36.7578C86.8381 36.3669 87.2163 35.9756 87.5816 35.5841C87.5947 35.5842 87.6012 35.5776 87.6011 35.5645C91.639 31.5561 95.6624 28.0675 99.6712 25.0986C103.685 28.0724 107.702 31.5676 111.722 35.5841C112.1 35.9625 112.478 36.3472 112.856 36.7383C113.17 37.0601 113.542 37.2231 113.971 37.2273C114.413 37.2299 114.784 37.0734 115.087 36.7578L134.199 17.6453C134.219 17.6394 134.232 17.6263 134.238 17.6062C134.383 17.4807 134.493 17.3307 134.571 17.1563C134.592 17.1151 134.611 17.0695 134.63 17.0193C134.654 16.9379 134.673 16.8531 134.688 16.765C134.7 16.6956 134.706 16.6239 134.708 16.5498C134.708 16.54 134.708 16.527 134.708 16.5107C134.709 16.4283 134.703 16.3435 134.688 16.2564L134.59 15.9238C134.564 15.8586 134.532 15.7934 134.493 15.7282C134.462 15.6641 134.423 15.5989 134.375 15.5326C134.073 15.1263 133.734 14.735 133.358 14.3588ZM130.834 16.3738C130.877 16.4162 130.916 16.4553 130.952 16.4911L113.991 33.4322C113.978 33.4192 113.958 33.3996 113.932 33.3735C110.022 29.4604 106.109 26.0304 102.195 23.0837C105.962 20.5759 109.731 18.5414 113.502 16.9802H113.522C121.231 13.7642 126.845 13.4055 130.365 15.9043C130.519 16.0585 130.676 16.215 130.834 16.3738ZM112.309 14.085C108.03 15.8517 103.759 18.1992 99.4952 21.1274C95.0018 17.9801 90.5024 15.4761 85.997 13.6154H86.0166C81.3082 11.6495 77.2522 10.6388 73.8486 10.5833C81.1608 5.62328 89.5075 3.13885 98.8887 3.12999C108.543 3.13911 117.099 5.78004 124.555 11.0528C121.144 11.0923 117.062 12.103 112.309 14.085ZM129.582 81.3015C126.043 83.2318 120.709 82.7102 113.58 79.7365C109.793 78.151 106.004 76.1034 102.214 73.5939C105.721 70.9263 109.223 67.8746 112.719 64.4387L129.582 81.3015ZM112.367 82.6317C117.162 84.6298 121.277 85.6405 124.711 85.6639C117.229 91.0106 108.635 93.6842 98.9279 93.6845C89.4654 93.6875 81.06 91.1639 73.7117 86.1138C77.1232 86.0833 81.2053 85.0791 85.9579 83.1012C90.4885 81.2277 95.0075 78.7107 99.5147 75.5501C103.8 78.4784 108.084 80.8389 112.367 82.6317ZM84.8037 16.5107C88.8678 18.1913 92.9303 20.4149 96.9912 23.1815C93.1306 26.1119 89.2572 29.5092 85.371 33.3735C85.3727 33.387 85.3662 33.3935 85.3514 33.3931C84.9829 33.7876 84.6046 34.1854 84.2168 34.5864H84.1972C80.4733 38.4054 77.1998 42.2332 74.3769 46.0695C71.5533 41.963 69.2906 37.8549 67.5886 33.7452C64.1934 25.6227 63.9847 19.8257 66.9626 16.3542L67.0018 16.3151C67.0184 16.2944 67.0315 16.2749 67.0409 16.2564C67.0918 16.2044 67.1374 16.1523 67.1778 16.0999C70.6172 12.8999 76.4924 13.0368 84.8037 16.5107ZM64.6934 34.9581V34.9385C66.5403 39.4023 69.0182 43.8691 72.1272 48.3388C68.9921 52.82 66.4946 57.2933 64.6347 61.7586C62.6179 66.5945 61.6006 70.7353 61.5829 74.1807C56.2843 66.7075 53.6303 58.1326 53.621 48.4561C53.6203 38.6903 56.2938 30.0437 61.6416 22.5164C61.6563 25.9763 62.6735 30.1236 64.6934 34.9581ZM67.53 62.9715V62.9519C69.1855 58.9833 71.3635 55.0057 74.0639 51.0188C77.0357 54.9574 80.4917 58.9025 84.432 62.8541C84.4455 62.8654 84.452 62.8719 84.4516 62.8737C84.8461 63.2553 85.2439 63.64 85.6449 64.0279C89.3556 67.6588 93.079 70.8605 96.8151 73.633C92.8045 76.3496 88.7877 78.5406 84.7646 80.206C77.1136 83.3887 71.5253 83.7669 67.9995 81.3406L67.9603 81.321C67.6723 81.1059 67.3985 80.8646 67.1387 80.5972C67.1387 80.5995 67.1322 80.593 67.1191 80.5777C63.9202 77.163 64.0571 71.2943 67.53 62.9715ZM142.063 29.8327C141.718 29.8891 141.418 30.0391 141.163 30.2826L122.794 48.6322C122.495 48.9444 122.345 49.3161 122.344 49.7473C122.344 50.177 122.494 50.5422 122.794 50.8428L141.163 69.1923C141.418 69.4492 141.718 69.5992 142.063 69.6423C142.413 69.6943 142.739 69.6291 143.041 69.4466C143.353 69.2801 143.575 69.0323 143.707 68.7033C146.193 62.9132 147.445 56.5945 147.463 49.7473C147.445 42.9 146.193 36.5748 143.707 30.7717C143.575 30.4558 143.353 30.208 143.041 30.0283C142.739 29.8589 142.413 29.7937 142.063 29.8327ZM144.333 49.7473C144.325 55.305 143.445 60.489 141.692 65.2994L126.12 49.7473L141.692 34.1756C143.445 38.9991 144.325 44.1897 144.333 49.7473Z" fill="white"/>
</svg>
