<svg width="902" height="206" viewBox="0 0 902 206" fill="none" xmlns="http://www.w3.org/2000/svg">
<path d="M71.4701 42.7073V42.739L0 196.225H39.7703L51.702 170.576H131.015L142.946 196.225H182.717L91.3584 0L71.4701 42.7073ZM91.3584 85.421L114.393 134.87H68.3558L91.3584 85.421Z" fill="#7BE3E3"/>
<path d="M71.4701 42.7073V42.739L60.2536 66.8683C60.8739 65.6213 61.7095 64.4693 62.7476 63.4248C65.1529 61.0258 68.0899 59.8042 71.5017 59.8042C74.9135 59.8042 77.8568 61.0258 80.2559 63.4248C81.237 64.406 82.0092 65.4757 82.5156 66.5708L114.393 134.87H47.9358C44.581 134.781 41.7325 133.566 39.3589 131.192C36.8965 128.723 35.6749 125.761 35.6749 122.286C35.6749 120.893 35.8838 119.558 36.3015 118.311L0 196.225H39.7703L51.702 170.576H131.015L142.946 196.225H182.717L91.3584 0L71.4701 42.7073Z" fill="#10B3B3"/>
<path d="M71.4702 42.7073V42.739L60.2537 66.8683C60.874 65.6213 61.7095 64.4693 62.7476 63.4248C65.153 61.0258 68.09 59.8042 71.5018 59.8042C74.9136 59.8042 77.857 61.0258 80.256 63.4248C81.2371 64.406 82.0093 65.4757 82.5157 66.5708L122.495 152.296C123.001 153.72 123.235 155.264 123.235 156.891C123.235 160.664 121.9 163.898 119.229 166.569C116.646 169.152 113.589 170.487 110.031 170.576H131.015L142.947 196.225H182.717L91.3585 0L71.4702 42.7073Z" fill="#2C8585"/>
<path d="M662.024 107.389L658.985 88.3457L627.723 94.3929C604.225 98.8518 592.472 114.445 592.472 141.132C592.472 155.369 595.846 166.041 602.57 173.18C609.295 180.352 618.353 183.926 629.721 183.926C636.601 183.926 642.785 182.602 648.313 180.005C653.801 177.407 658.141 173.801 661.254 169.143C664.366 164.37 665.898 158.943 665.898 152.772C665.898 146.799 664.71 141.521 662.294 136.988C659.952 132.446 656.454 128.955 651.843 126.589C647.273 124.066 641.818 122.825 635.52 122.867C626.961 122.867 619.778 125.622 614.012 131.131C614.667 125.737 616.592 121.667 619.811 118.83C623.005 115.926 628.034 113.866 634.987 112.584L662.024 107.389ZM629.836 139.511C633.759 139.511 636.945 140.669 639.361 142.961C641.704 145.401 642.858 148.66 642.899 152.772C642.858 156.767 641.704 160.027 639.443 162.591C637.101 165.263 633.874 166.62 629.836 166.62C625.806 166.62 622.62 165.338 620.196 162.782C617.706 160.225 616.477 156.925 616.51 152.888C616.477 148.776 617.706 145.517 620.122 143.076C622.538 140.711 625.765 139.511 629.836 139.511Z" fill="white"/>
<path d="M699.316 116.83H676.658V182.027H697.801L724.737 147.682V182.027H747.552V116.83H726.566L699.316 150.95V116.83Z" fill="white"/>
<path d="M756.414 134.956H777.456V182.027H800.135V134.956H820.978V116.83H756.414V134.956Z" fill="white"/>
<path d="M870.319 116.198C861.857 116.156 855.552 118.677 851.363 123.677V117.239H829.84V205.447H852.404V176.422C856.823 180.951 862.825 183.24 870.319 183.24C876.239 183.24 881.584 181.844 886.356 179.091C891.153 176.339 894.965 172.43 897.769 167.389C900.582 162.314 901.959 156.422 902 149.719C901.959 142.975 900.582 137.082 897.769 132.008C894.965 126.933 891.153 123.016 886.356 120.19C881.584 117.512 876.239 116.156 870.319 116.198ZM855.823 138.363C858.365 135.611 861.628 134.215 865.67 134.256C869.589 134.215 872.811 135.611 875.394 138.363C877.928 141.116 879.198 144.909 879.198 149.719C879.198 154.488 877.928 158.281 875.394 161.033C872.811 163.785 869.589 165.182 865.67 165.182C861.628 165.182 858.365 163.785 855.823 161.033C853.281 158.281 852.019 154.488 852.019 149.719C852.019 144.909 853.281 141.116 855.823 138.363Z" fill="white"/>
<path d="M466.717 97.8403H443.43L406.375 182.027H430.553L437.169 165.639H472.681L479.214 182.027H503.854L466.717 97.8403ZM465.677 148.115H444.09L454.962 121.23L465.677 148.115Z" fill="white"/>
<path d="M552.603 116.198C544.149 116.156 537.844 118.677 533.646 123.677V117.239H512.083V205.447H534.688V176.422C539.107 180.951 545.109 183.24 552.603 183.24C558.522 183.24 563.868 181.844 568.64 179.091C573.445 176.339 577.249 172.43 580.053 167.389C582.857 162.314 584.243 156.422 584.243 149.719C584.243 142.975 582.857 137.082 580.053 132.008C577.249 126.933 573.445 123.016 568.64 120.19C563.868 117.512 558.522 116.156 552.603 116.198ZM538.107 138.363C540.648 135.611 543.912 134.215 547.954 134.256C551.873 134.215 555.103 135.611 557.637 138.363C560.179 141.116 561.449 144.909 561.482 149.719C561.449 154.488 560.179 158.281 557.637 161.033C555.103 163.785 551.873 165.182 547.954 165.182C543.912 165.182 540.648 163.785 538.107 161.033C535.573 158.281 534.302 154.488 534.302 149.719C534.302 144.909 535.573 141.116 538.107 138.363Z" fill="white"/>
<path d="M204.206 117.623C200.137 124.284 198.124 131.804 198.124 140.209C198.124 148.622 200.137 156.142 204.206 162.803C208.152 169.389 213.607 174.546 220.614 178.265C227.622 182.025 235.512 183.926 244.302 183.926C252.003 183.926 258.894 182.57 265.043 179.819C271.2 177.067 276.309 173.149 280.411 168.117L265.241 154.431C259.86 160.985 253.241 164.241 245.458 164.241C240.968 164.241 236.948 163.232 233.383 161.249C229.784 159.2 227.036 156.373 225.104 152.729C223.132 149.126 222.125 144.977 222.125 140.209C222.125 135.449 223.132 131.3 225.104 127.73C227.036 124.052 229.784 121.259 233.383 119.284C236.948 117.309 240.968 116.301 245.458 116.301C253.241 116.301 259.86 119.557 265.241 126.102L280.411 112.466C276.309 107.309 271.2 103.4 265.043 100.648C258.894 97.9295 252.003 96.5742 244.302 96.5742C235.512 96.5742 227.622 98.4419 220.614 102.161C213.607 105.88 208.152 111.028 204.206 117.623Z" fill="white"/>
<path d="M336.254 129.813H314.506V116.333H361.332V97.8403H291.172V182.027H333.071C344.04 182.027 352.57 179.657 358.654 174.885C364.737 170.063 367.763 163.418 367.763 154.951C367.763 146.873 365.052 140.692 359.58 136.383C354.199 131.992 346.445 129.813 336.254 129.813ZM314.506 146.757H331.559C339.742 146.757 343.85 149.706 343.85 155.647C343.808 158.638 342.759 160.974 340.667 162.565C338.535 164.156 335.51 164.976 331.559 164.976H314.506V146.757Z" fill="white"/>
<path d="M870.36 116.444C861.907 116.403 855.602 118.924 851.404 123.924V117.486H829.84V205.694H852.445V176.669C856.864 181.198 862.866 183.487 870.36 183.487C876.28 183.487 881.625 182.09 886.397 179.338C891.202 176.586 895.006 172.677 897.81 167.635C900.614 162.561 902 156.668 902 149.966C902 143.222 900.614 137.329 897.81 132.254C895.006 127.18 891.202 123.263 886.397 120.436C881.625 117.758 876.28 116.403 870.36 116.444ZM855.864 138.61C858.406 135.858 861.669 134.461 865.711 134.502C869.63 134.461 872.861 135.858 875.394 138.61C877.936 141.362 879.207 145.156 879.24 149.966C879.207 154.734 877.936 158.528 875.394 161.28C872.861 164.032 869.63 165.429 865.711 165.429C861.669 165.429 858.406 164.032 855.864 161.28C853.33 158.528 852.06 154.734 852.06 149.966C852.06 145.156 853.33 141.362 855.864 138.61Z" fill="white"/>
</svg>
