<svg width="1300" height="400" viewBox="0 0 1300 400" fill="none" xmlns="http://www.w3.org/2000/svg">
<path d="M112.91 105.51V105.56L0 348.04H62.83L81.68 307.52H206.98L225.83 348.04H288.66L144.33 38.04L112.91 105.51ZM144.33 172.99L180.72 251.11H107.99L144.33 172.99Z" fill="#7BE3E3"/>
<path d="M112.91 105.51V105.56L95.19 143.68C96.17 141.71 97.49 139.89 99.13 138.24C102.93 134.45 107.57 132.52 112.96 132.52C118.35 132.52 123 134.45 126.79 138.24C128.34 139.79 129.56 141.48 130.36 143.21L180.72 251.11H75.73C70.43 250.97 65.93 249.05 62.18 245.3C58.29 241.4 56.36 236.72 56.36 231.23C56.36 229.03 56.69 226.92 57.35 224.95L0 348.04H62.83L81.68 307.52H206.98L225.83 348.04H288.66L144.33 38.04L112.91 105.51Z" fill="#10B3B3"/>
<path d="M112.91 105.51V105.56L95.1899 143.68C96.1699 141.71 97.4899 139.89 99.1299 138.24C102.93 134.45 107.57 132.52 112.96 132.52C118.35 132.52 123 134.45 126.79 138.24C128.34 139.79 129.56 141.48 130.36 143.21L193.52 278.64C194.32 280.89 194.69 283.33 194.69 285.9C194.69 291.86 192.58 296.97 188.36 301.19C184.28 305.27 179.45 307.38 173.83 307.52H206.98L225.83 348.04H288.66L144.33 38.04L112.91 105.51Z" fill="#2C8585"/>
<path d="M909.18 117.94L905.47 94.92L867.3 102.23C838.61 107.62 824.26 126.47 824.26 158.73C824.26 175.94 828.38 188.84 836.59 197.47C844.8 206.14 855.86 210.46 869.74 210.46C878.14 210.46 885.69 208.86 892.44 205.72C899.14 202.58 904.44 198.22 908.24 192.59C912.04 186.82 913.91 180.26 913.91 172.8C913.91 165.58 912.46 159.2 909.51 153.72C906.65 148.23 902.38 144.01 896.75 141.15C891.17 138.1 884.51 136.6 876.82 136.65C866.37 136.65 857.6 139.98 850.56 146.64C851.36 140.12 853.71 135.2 857.64 131.77C861.54 128.26 867.68 125.77 876.17 124.22L909.18 117.94ZM869.88 156.77C874.67 156.77 878.56 158.17 881.51 160.94C884.37 163.89 885.78 167.83 885.83 172.8C885.78 177.63 884.37 181.57 881.61 184.67C878.75 187.9 874.81 189.54 869.88 189.54C864.96 189.54 861.07 187.99 858.11 184.9C855.07 181.81 853.57 177.82 853.61 172.94C853.57 167.97 855.07 164.03 858.02 161.08C860.97 158.22 864.91 156.77 869.88 156.77Z" fill="white"/>
<path d="M954.14 129.8H926.76V208.39H952.31L984.86 166.99V208.39H1012.43V129.8H987.07L954.14 170.93V129.8Z" fill="white"/>
<path d="M1023.12 151.65H1048.58V208.39H1076.02V151.65H1101.24V129.8H1023.12V151.65Z" fill="white"/>
<path d="M1161.36 128.54C1151.04 128.49 1143.35 131.54 1138.24 137.59V129.8H1111.99V236.53H1139.51V201.41C1144.9 206.89 1152.22 209.66 1161.36 209.66C1168.58 209.66 1175.1 207.97 1180.92 204.64C1186.77 201.31 1191.42 196.58 1194.84 190.48C1198.27 184.34 1199.95 177.21 1200 169.1C1199.95 160.94 1198.27 153.81 1194.84 147.67C1191.42 141.53 1186.77 136.79 1180.92 133.37C1175.1 130.13 1168.58 128.49 1161.36 128.54ZM1143.68 155.36C1146.78 152.03 1150.76 150.34 1155.69 150.39C1160.47 150.34 1164.4 152.03 1167.55 155.36C1170.64 158.69 1172.19 163.28 1172.19 169.1C1172.19 174.87 1170.64 179.46 1167.55 182.79C1164.4 186.12 1160.47 187.81 1155.69 187.81C1150.76 187.81 1146.78 186.12 1143.68 182.79C1140.58 179.46 1139.04 174.87 1139.04 169.1C1139.04 163.28 1140.58 158.69 1143.68 155.36Z" fill="white"/>
<path d="M671.95 106.78H643.72L598.8 208.39H628.11L636.13 188.61H679.18L687.1 208.39H716.97L671.95 106.78ZM670.69 167.46H644.52L657.7 135.01L670.69 167.46Z" fill="white"/>
<path d="M776.38 128.54C766.07 128.49 758.38 131.54 753.26 137.59V129.8H726.96V236.53H754.53V201.41C759.92 206.89 767.24 209.66 776.38 209.66C783.6 209.66 790.12 207.97 795.94 204.64C801.8 201.31 806.44 196.58 809.86 190.48C813.28 184.34 814.97 177.21 814.97 169.1C814.97 160.94 813.28 153.81 809.86 147.67C806.44 141.53 801.8 136.79 795.94 133.37C790.12 130.13 783.6 128.49 776.38 128.54ZM758.7 155.36C761.8 152.03 765.78 150.34 770.71 150.39C775.49 150.34 779.43 152.03 782.52 155.36C785.62 158.69 787.17 163.28 787.21 169.1C787.17 174.87 785.62 179.46 782.52 182.79C779.43 186.12 775.49 187.81 770.71 187.81C765.78 187.81 761.8 186.12 758.7 182.79C755.61 179.46 754.06 174.87 754.06 169.1C754.06 163.28 755.61 158.69 758.7 155.36Z" fill="white"/>
<path d="M354.08 130.23C349.15 138.29 346.71 147.39 346.71 157.56C346.71 167.74 349.15 176.84 354.08 184.9C358.86 192.87 365.47 199.11 373.96 203.61C382.45 208.16 392.01 210.46 402.66 210.46C411.99 210.46 420.34 208.82 427.79 205.49C435.25 202.16 441.44 197.42 446.41 191.33L428.03 174.77C421.51 182.7 413.49 186.64 404.06 186.64C398.62 186.64 393.75 185.42 389.43 183.02C385.07 180.54 381.74 177.12 379.4 172.71C377.01 168.35 375.79 163.33 375.79 157.56C375.79 151.8 377.01 146.78 379.4 142.46C381.74 138.01 385.07 134.63 389.43 132.24C393.75 129.85 398.62 128.63 404.06 128.63C413.49 128.63 421.51 132.57 428.03 140.49L446.41 123.99C441.44 117.75 435.25 113.02 427.79 109.69C420.34 106.4 411.99 104.76 402.66 104.76C392.01 104.76 382.45 107.02 373.96 111.52C365.47 116.02 358.86 122.25 354.08 130.23Z" fill="white"/>
<path d="M513.84 145.37H487.53V129.1H544.18V106.78H459.3V208.39H509.99C523.26 208.39 533.58 205.53 540.94 199.77C548.3 193.95 551.96 185.93 551.96 175.71C551.96 165.96 548.68 158.5 542.06 153.3C535.55 148 526.17 145.37 513.84 145.37ZM487.53 165.82H508.16C518.06 165.82 523.03 169.38 523.03 176.55C522.98 180.16 521.71 182.98 519.18 184.9C516.6 186.82 512.94 187.81 508.16 187.81H487.53V165.82Z" fill="white"/>
<path d="M1158.55 258.75H1152.55V288.3H1158.97L1171.11 269.82C1171.86 268.46 1172.43 267.43 1172.8 266.63V288.3H1178.71V258.75H1172.15L1159.86 277.42C1159.21 278.64 1158.78 279.48 1158.55 280V258.75Z" fill="#B2B2B2"/>
<path d="M1119.48 259.46C1117.47 258.52 1115.17 258.05 1112.6 258.05C1107.86 258.05 1104.06 259.55 1101.29 262.51C1098.43 265.41 1097.02 269.31 1097.02 274.23C1097.02 278.59 1098.34 282.11 1100.96 284.87C1103.54 287.59 1107.01 288.95 1111.28 289C1114.42 288.95 1117.18 288.25 1119.48 286.89V281.08C1117.37 282.81 1115.17 283.65 1112.88 283.7C1110.06 283.65 1107.81 282.76 1106.17 280.98C1104.48 279.2 1103.64 276.81 1103.68 273.76C1103.64 270.67 1104.53 268.18 1106.36 266.3C1108.09 264.38 1110.35 263.4 1113.11 263.4C1115.36 263.4 1117.47 264.15 1119.48 265.7V259.46Z" fill="#B2B2B2"/>
<path d="M1065.89 262.27C1063.13 265.04 1061.77 268.88 1061.77 273.85C1061.77 278.4 1063.08 282.06 1065.71 284.83C1068.37 287.59 1071.94 288.95 1076.39 289C1080.94 288.95 1084.55 287.55 1087.32 284.73C1090 281.87 1091.3 278.12 1091.3 273.43C1091.3 268.6 1090.04 264.8 1087.56 262.13C1085.02 259.41 1081.51 258.05 1077.05 258.05C1072.4 258.05 1068.65 259.46 1065.89 262.27ZM1076.63 263.4C1079.21 263.4 1081.22 264.29 1082.58 266.07C1083.94 267.8 1084.6 270.34 1084.65 273.57C1084.6 276.81 1083.94 279.29 1082.58 281.03C1081.22 282.76 1079.21 283.65 1076.63 283.7C1074.14 283.65 1072.17 282.76 1070.67 280.98C1069.12 279.2 1068.37 276.76 1068.37 273.71C1068.37 270.48 1069.12 267.99 1070.62 266.16C1072.12 264.34 1074.14 263.4 1076.63 263.4Z" fill="#B2B2B2"/>
<path d="M1087.84 318.54H1081.88V348.04H1088.31L1100.4 329.61C1101.15 328.25 1101.71 327.22 1102.14 326.42V348.04H1108V318.54H1101.48L1089.15 337.16C1088.49 338.38 1088.07 339.27 1087.84 339.78V318.54Z" fill="#B2B2B2"/>
<path d="M1070.67 318.54H1064.16V342.97H1054.35V318.54H1047.79V342.97H1038.04V318.54H1031.52V348.04H1069.64V358.77H1075.08V342.97H1070.67V318.54Z" fill="#B2B2B2"/>
<path d="M1121.74 318.54H1114.14L1123.42 333.59L1113.63 348.04H1121.22L1126.33 338.94C1127.04 337.67 1127.41 336.92 1127.51 336.78H1127.6C1128.02 337.63 1128.44 338.33 1128.77 338.94L1133.79 348.04H1141.38L1131.91 333.5L1141.52 318.54H1134.35L1127.88 330.31H1127.79C1127.46 329.56 1127.08 328.86 1126.75 328.15L1121.74 318.54Z" fill="#B2B2B2"/>
<path d="M1131.73 288.3H1138.24V264.1H1146.49V258.75H1123.47V264.1H1131.73V288.3Z" fill="#B2B2B2"/>
<path d="M1054.21 288.3V258.75H1047.65V270.34H1035.13V258.75H1028.56V288.3H1035.13V275.35H1047.65V288.3H1054.21Z" fill="#B2B2B2"/>
<path d="M1000.05 258.75H993.49V288.3H1000.05V275.35H1012.58V288.3H1019.14V258.75H1012.58V270.34H1000.05V258.75Z" fill="#B2B2B2"/>
<path d="M923.2 258.75H900.22V264.1H908.47V288.3H914.99V264.1H923.2V258.75Z" fill="#B2B2B2"/>
<path d="M943.04 258.75H929.3V288.3H944.25C947.07 288.25 949.41 287.45 951.28 285.81C953.21 284.17 954.14 282.11 954.14 279.62C954.14 275.68 951.89 273.43 947.45 272.82C951.19 272.02 953.06 269.73 953.11 265.93C953.11 263.72 952.22 261.99 950.39 260.72C948.57 259.41 946.13 258.75 943.04 258.75ZM942.24 263.49C945.05 263.49 946.46 264.66 946.46 266.96C946.46 269.54 944.82 270.81 941.58 270.81H935.81V263.49H942.24ZM942.1 275.45C945.71 275.45 947.54 276.76 947.54 279.39C947.54 282.11 945.85 283.47 942.52 283.51H935.81V275.45H942.1Z" fill="#B2B2B2"/>
<path d="M969.25 281.64C967.65 280.18 966.81 278.07 966.76 275.31H986.36V272.78C986.32 268.13 985.24 264.57 983.13 261.99C980.97 259.36 977.92 258.05 973.98 258.05C970.05 258.05 966.76 259.5 964.14 262.41C961.46 265.27 960.15 269.02 960.15 273.62C960.15 278.5 961.37 282.29 963.76 284.97C966.15 287.64 969.44 288.95 973.7 289C978.01 288.95 981.48 288.11 984.11 286.42V281.03C981.53 282.95 978.71 283.89 975.67 283.89C972.91 283.84 970.8 283.09 969.25 281.64ZM969.15 265.08C970.42 263.72 972.02 263.02 973.88 263.02C975.81 263.02 977.36 263.68 978.43 264.99C979.51 266.3 980.03 268.18 980.08 270.57H966.76C967.09 268.32 967.89 266.49 969.15 265.08Z" fill="#B2B2B2"/>
<path d="M928.59 323.65H934.45V348.04H941.02V318.54H923.29C922.12 335.19 919.54 343.49 915.51 343.49C914.76 343.49 914.05 343.3 913.45 342.97V347.94C914.24 348.27 915.18 348.41 916.35 348.46C919.68 348.46 922.35 346.63 924.37 342.93C926.39 339.17 927.79 332.75 928.59 323.65Z" fill="#B2B2B2"/>
<path d="M908.33 325.72C908.33 323.51 907.44 321.73 905.61 320.46C903.78 319.2 901.35 318.54 898.25 318.54H884.51V348.04H899.47C902.28 348.04 904.63 347.24 906.5 345.6C908.43 343.91 909.37 341.85 909.37 339.41C909.37 335.47 907.11 333.22 902.66 332.61C906.41 331.81 908.29 329.51 908.33 325.72ZM891.03 323.28H897.45C900.27 323.28 901.67 324.45 901.67 326.75C901.67 329.33 900.03 330.59 896.8 330.59H891.03V323.28ZM891.03 343.3V335.23H897.31C900.92 335.23 902.75 336.55 902.75 339.17C902.75 341.89 901.07 343.25 897.74 343.3H891.03Z" fill="#B2B2B2"/>
<path d="M972.63 318.54H961.09C957.57 318.54 954.85 319.29 952.83 320.84C950.77 322.39 949.73 324.5 949.73 327.12C949.73 329.19 950.34 330.92 951.52 332.33C952.69 333.69 954.47 334.48 956.77 334.81C954.94 335.52 953.39 337.02 952.13 339.31L947.59 348.04H954.94L958.37 340.81C959.68 337.86 961.13 336.36 962.78 336.36H966.11V348.04H972.63V318.54ZM961.65 323.37H966.11V331.76H961.56C958.04 331.76 956.3 330.36 956.35 327.54C956.3 324.78 958.08 323.37 961.65 323.37Z" fill="#B2B2B2"/>
<path d="M1010 317.84C1006.05 317.84 1002.86 318.92 1000.38 321.12C997.8 323.23 996.31 326.23 995.84 330.12H988.52V318.54H982V348.04H988.52V335.23H995.7C995.84 339.5 997.14 342.83 999.53 345.22C1001.93 347.57 1005.26 348.74 1009.53 348.79C1013.98 348.74 1017.5 347.33 1020.07 344.57C1022.6 341.7 1023.87 337.91 1023.87 333.08C1023.87 328.15 1022.7 324.4 1020.31 321.82C1017.83 319.15 1014.4 317.84 1010 317.84ZM1009.81 343.49C1004.74 343.44 1002.21 340.06 1002.21 333.26C1002.21 326.56 1004.69 323.18 1009.67 323.18C1014.69 323.18 1017.22 326.56 1017.27 333.26C1017.22 340.06 1014.73 343.44 1009.81 343.49Z" fill="#B2B2B2"/>
<path d="M554.44 258.75H540.71V288.3H555.66C558.48 288.25 560.82 287.45 562.7 285.81C564.62 284.17 565.56 282.11 565.56 279.62C565.56 275.68 563.31 273.43 558.81 272.82C562.6 272.02 564.48 269.73 564.48 265.93C564.48 263.72 563.59 261.99 561.76 260.72C559.98 259.41 557.54 258.75 554.44 258.75ZM553.6 263.49C556.41 263.49 557.82 264.66 557.87 266.96C557.87 269.54 556.23 270.81 552.99 270.81H547.22V263.49H553.6ZM547.22 275.45H553.46C557.07 275.45 558.9 276.76 558.9 279.39C558.9 282.11 557.21 283.47 553.88 283.51H547.22V275.45Z" fill="#B2B2B2"/>
<path d="M480.5 258.75H472.85L482.14 273.81L472.38 288.3H479.93L485.04 279.15C485.75 277.89 486.12 277.18 486.26 277.04H486.36C486.78 277.89 487.15 278.59 487.48 279.15L492.5 288.3H500.1L490.63 273.71L500.19 258.75H493.06L486.59 270.52H486.5C486.17 269.77 485.8 269.07 485.47 268.37L480.5 258.75Z" fill="#B2B2B2"/>
<path d="M507.74 262.27C504.97 265.04 503.57 268.88 503.57 273.85C503.57 278.4 504.88 282.06 507.55 284.83C510.18 287.59 513.74 288.95 518.2 289C522.75 288.95 526.4 287.55 529.12 284.73C531.79 281.87 533.16 278.12 533.16 273.43C533.16 268.6 531.89 264.8 529.4 262.13C526.87 259.41 523.35 258.05 518.9 258.05C514.21 258.05 510.51 259.46 507.74 262.27ZM512.48 280.98C510.98 279.2 510.22 276.76 510.22 273.71C510.22 270.48 510.98 267.99 512.43 266.16C513.93 264.34 515.95 263.4 518.48 263.4C521.06 263.4 523.03 264.29 524.43 266.07C525.79 267.8 526.45 270.34 526.45 273.57C526.45 276.81 525.79 279.29 524.43 281.03C523.03 282.76 521.06 283.65 518.48 283.7C515.99 283.65 513.98 282.76 512.48 280.98Z" fill="#B2B2B2"/>
<path d="M455.18 263.07C459.02 263.07 460.94 265.18 460.94 269.35L452.46 270.57C446.22 271.51 443.08 274.74 443.08 280.32C443.08 282.95 443.87 285.06 445.47 286.61C447.06 288.16 449.27 288.95 452.13 289C455.92 288.95 458.83 287.22 460.8 283.7H460.94V288.3H467.27V269.07C467.27 261.71 463.66 258.05 456.39 258.05C452.41 258.05 448.89 258.99 445.89 260.86V266.73C448.61 264.29 451.7 263.07 455.18 263.07ZM450.63 282.72C449.74 281.92 449.27 280.89 449.31 279.62C449.31 277.89 449.78 276.71 450.72 276.06C451.66 275.35 453.06 274.89 454.94 274.65L460.94 273.76V276.34C460.94 278.54 460.29 280.32 459.02 281.73C457.75 283.14 456.11 283.84 454.1 283.89C452.64 283.89 451.52 283.51 450.63 282.72Z" fill="#B2B2B2"/>
<path d="M476.56 318.54H469.99L457.71 337.16C457.05 338.38 456.63 339.27 456.39 339.78V318.54H450.39V348.04H456.82L468.96 329.61C469.71 328.25 470.27 327.22 470.65 326.42V348.04H476.56V318.54Z" fill="#B2B2B2"/>
<path d="M518.15 318.54H511.68V361.63H518.15V343.72H518.29C520.26 347 523.07 348.65 526.78 348.69C530.76 348.65 533.95 347.19 536.25 344.24C538.55 341.28 539.67 337.34 539.67 332.42C539.67 327.97 538.64 324.4 536.63 321.82C534.61 319.15 531.75 317.84 528.09 317.84C523.78 317.84 520.5 319.81 518.29 323.75H518.15V318.54ZM518.1 335.7V332.09C518.1 329.51 518.81 327.4 520.26 325.72C521.67 324.03 523.54 323.18 525.84 323.18C528.04 323.18 529.78 324.03 531.09 325.67C532.36 327.31 533.01 329.56 533.01 332.47C533.01 335.89 532.31 338.61 530.95 340.58C529.54 342.5 527.62 343.49 525.23 343.49C523.17 343.44 521.48 342.69 520.17 341.19C518.81 339.69 518.1 337.86 518.1 335.7Z" fill="#B2B2B2"/>
<path d="M505.58 323.89V318.54H482.56V323.89H490.81V348.04H497.38V323.89H505.58Z" fill="#B2B2B2"/>
<path d="M583.38 263.07C587.27 263.07 589.19 265.18 589.19 269.35L580.66 270.57C574.42 271.51 571.28 274.74 571.28 280.32C571.28 282.95 572.08 285.06 573.67 286.61C575.26 288.16 577.47 288.95 580.33 289C584.13 288.95 587.03 287.22 589.05 283.7H589.19V288.3H595.47V269.07C595.47 261.71 591.86 258.05 584.6 258.05C580.61 258.05 577.09 258.99 574.09 260.86V266.73C576.86 264.29 579.95 263.07 583.38 263.07ZM578.87 282.72C577.98 281.92 577.52 280.89 577.52 279.62C577.52 277.89 577.98 276.71 578.92 276.06C579.86 275.35 581.27 274.89 583.14 274.65L589.19 273.76V276.34C589.14 278.54 588.49 280.32 587.22 281.73C585.96 283.14 584.31 283.84 582.3 283.89C580.84 283.89 579.72 283.51 578.87 282.72Z" fill="#B2B2B2"/>
<path d="M547.27 320.6V326.51C549.99 324.07 553.08 322.86 556.51 322.86C560.4 322.86 562.32 324.97 562.37 329.14L553.79 330.36C547.55 331.3 544.41 334.53 544.46 340.11C544.46 342.74 545.25 344.85 546.85 346.4C548.44 347.94 550.65 348.74 553.46 348.79C557.3 348.74 560.21 347 562.23 343.49H562.37V348.04H568.65V328.86C568.65 321.5 565.04 317.79 557.77 317.84C553.79 317.79 550.27 318.73 547.27 320.6ZM550.65 339.41C550.65 337.67 551.12 336.5 552.1 335.84C553.04 335.14 554.44 334.67 556.27 334.44L562.37 333.55V336.13C562.32 338.33 561.67 340.11 560.4 341.52C559.13 342.93 557.49 343.63 555.48 343.68C554.02 343.63 552.85 343.25 552 342.46C551.12 341.66 550.65 340.67 550.65 339.41Z" fill="#B2B2B2"/>
<path d="M592.85 333.41V348.04H599.23V333.41H599.37L610.57 348.04H618.73L605.88 332.75L618.12 318.54H610.15L599.37 332.47H599.23V318.54H592.85V332.47H592.75L581.92 318.54H574L586.19 332.75L573.43 348.04H581.55L592.8 333.41H592.85Z" fill="#B2B2B2"/>
<path d="M377.66 254.72V247.92C375.08 246.84 371.89 246.28 368 246.28C361.95 246.28 356.94 248.3 353 252.38C349.01 256.46 347 261.8 347.04 268.41C347 274.56 348.78 279.53 352.34 283.33C355.86 287.12 360.5 289 366.36 289C370.91 288.95 374.66 288.16 377.66 286.51V280.18C374.85 282.06 371.57 283 367.82 283C363.69 282.95 360.36 281.64 357.83 278.96C355.3 276.24 354.03 272.59 354.03 268.04C353.98 263.21 355.34 259.41 358.11 256.6C360.78 253.74 364.35 252.28 368.71 252.28C371.99 252.28 374.99 253.08 377.66 254.72Z" fill="#B2B2B2"/>
<path d="M404.2 258.75H381.18V264.1H389.43V288.3H396V264.1H404.2V258.75Z" fill="#B2B2B2"/>
<path d="M416.77 258.75H410.3V301.85H416.77V283.94H416.91C418.88 287.22 421.69 288.86 425.4 288.91C429.38 288.86 432.57 287.4 434.87 284.45C437.17 281.5 438.34 277.56 438.34 272.63C438.29 268.18 437.26 264.62 435.25 262.04C433.23 259.36 430.37 258.05 426.71 258.05C422.4 258.05 419.12 260.02 416.91 263.96H416.77V258.75ZM429.71 265.88C430.98 267.52 431.63 269.77 431.63 272.68C431.63 276.1 430.93 278.82 429.57 280.79C428.17 282.72 426.24 283.7 423.85 283.7C421.79 283.65 420.1 282.9 418.79 281.4C417.43 279.9 416.72 278.07 416.72 275.92V272.31C416.72 269.73 417.43 267.62 418.88 265.93C420.29 264.24 422.16 263.4 424.51 263.4C426.66 263.4 428.4 264.24 429.71 265.88Z" fill="#B2B2B2"/>
<path d="M349.53 320.6V326.51C352.3 324.07 355.39 322.86 358.81 322.86C362.7 322.86 364.63 324.97 364.63 329.14L356.09 330.36C349.86 331.3 346.71 334.53 346.71 340.11C346.71 342.74 347.51 344.85 349.11 346.4C350.7 347.94 352.9 348.74 355.76 348.79C359.61 348.74 362.52 347 364.49 343.49H364.63V348.04H370.96V328.86C370.91 321.5 367.3 317.79 360.03 317.84C356.05 317.79 352.53 318.73 349.53 320.6ZM358.58 334.44L364.63 333.55V336.13C364.58 338.33 363.92 340.11 362.66 341.52C361.39 342.93 359.75 343.63 357.78 343.68C356.33 343.63 355.15 343.25 354.31 342.46C353.42 341.66 352.95 340.67 352.95 339.41C352.95 337.67 353.42 336.5 354.4 335.84C355.34 335.14 356.75 334.67 358.58 334.44Z" fill="#B2B2B2"/>
<path d="M439.09 303.86C438.15 304.38 436.75 304.9 434.82 305.32C429.99 306.16 426.62 306.86 424.6 307.48C422.63 308.08 420.85 309.21 419.21 310.85C417.57 312.49 416.26 314.88 415.36 318.12C414.43 321.35 413.96 325.29 413.96 329.94C413.96 335.98 415.22 340.67 417.76 343.91C420.24 347.15 423.8 348.74 428.45 348.79C432.85 348.74 436.37 347.38 438.95 344.61C441.53 341.85 442.84 338.14 442.84 333.59C442.84 329.28 441.67 325.81 439.33 323.23C436.93 320.56 433.89 319.25 430.09 319.25C426.1 319.25 423.01 320.75 420.9 323.7H420.76C421.04 320.28 421.69 317.7 422.77 315.96C423.8 314.13 425.16 312.96 426.85 312.45C428.49 311.88 431.35 311.32 435.48 310.71C437.12 310.43 438.34 310.05 439.09 309.54V303.86ZM428.31 324.4C430.7 324.4 432.62 325.29 434.07 327.08C435.43 328.81 436.14 331.11 436.14 334.06C436.14 336.78 435.43 339.03 434.07 340.81C432.71 342.55 430.88 343.44 428.59 343.49C427.41 343.44 426.34 343.21 425.35 342.69C424.41 342.18 423.57 341.42 422.87 340.44C422.16 339.41 421.65 338.24 421.27 336.88C420.9 335.56 420.71 334.2 420.71 332.84V329.14C422.4 326 424.93 324.4 428.31 324.4Z" fill="#B2B2B2"/>
<path d="M404.77 321.82C402.75 319.15 399.89 317.84 396.23 317.84C391.92 317.84 388.64 319.81 386.43 323.75H386.29V318.54H379.82V361.63H386.29V343.72H386.43C388.4 347 391.21 348.65 394.92 348.69C398.91 348.65 402.09 347.19 404.39 344.24C406.69 341.28 407.81 337.34 407.81 332.42C407.81 327.97 406.78 324.4 404.77 321.82ZM393.98 323.18C396.19 323.18 397.92 324.03 399.23 325.67C400.5 327.31 401.16 329.56 401.16 332.47C401.16 335.89 400.45 338.61 399.09 340.58C397.69 342.5 395.76 343.49 393.37 343.49C391.31 343.44 389.62 342.69 388.31 341.19C386.95 339.69 386.24 337.86 386.24 335.7V332.09C386.24 329.51 386.95 327.4 388.35 325.72C389.76 324.03 391.64 323.18 393.98 323.18Z" fill="#B2B2B2"/>
<path d="M896.24 259.46C894.22 258.52 891.92 258.05 889.34 258.05C884.61 258.05 880.81 259.55 878 262.51C875.18 265.41 873.77 269.31 873.77 274.23C873.77 278.59 875.09 282.11 877.67 284.87C880.29 287.59 883.76 288.95 888.03 289C891.17 288.95 893.94 288.25 896.24 286.89V281.08C894.13 282.81 891.92 283.65 889.58 283.7C886.81 283.65 884.56 282.76 882.92 280.98C881.23 279.2 880.39 276.81 880.39 273.76C880.39 270.67 881.28 268.18 883.11 266.3C884.84 264.38 887.09 263.4 889.81 263.4C892.11 263.4 894.22 264.15 896.24 265.7V259.46Z" fill="#B2B2B2"/>
<path d="M870.45 258.75H847.42V264.1H855.67V288.3H862.24V264.1H870.45V258.75Z" fill="#B2B2B2"/>
<path d="M780.55 258.75H757.58V264.1H765.83V288.3H772.35V264.1H780.55V258.75Z" fill="#B2B2B2"/>
<path d="M800.39 258.75H786.65V288.3H801.61C804.42 288.25 806.77 287.45 808.64 285.81C810.56 284.17 811.5 282.11 811.5 279.62C811.5 275.68 809.25 273.43 804.8 272.82C808.55 272.02 810.42 269.73 810.47 265.93C810.47 263.72 809.58 261.99 807.75 260.72C805.92 259.41 803.48 258.75 800.39 258.75ZM793.17 270.81V263.49H799.59C802.41 263.49 803.81 264.66 803.81 266.96C803.81 269.54 802.17 270.81 798.94 270.81H793.17ZM793.17 275.45H799.45C803.06 275.45 804.89 276.76 804.89 279.39C804.84 282.11 803.16 283.47 799.83 283.51H793.17V275.45Z" fill="#B2B2B2"/>
<path d="M821.49 262.41C818.82 265.27 817.5 269.02 817.5 273.62C817.5 278.5 818.72 282.29 821.12 284.97C823.51 287.64 826.79 288.95 831.06 289C835.37 288.95 838.84 288.11 841.51 286.42V281.03C838.93 282.95 836.07 283.89 832.98 283.89C830.26 283.84 828.15 283.09 826.6 281.64C824.96 280.18 824.16 278.07 824.12 275.31H843.72V272.78C843.72 268.13 842.64 264.57 840.48 261.99C838.33 259.36 835.28 258.05 831.34 258.05C827.4 258.05 824.12 259.5 821.49 262.41ZM835.79 264.99C836.87 266.3 837.39 268.18 837.43 270.57H824.12C824.4 268.32 825.2 266.49 826.51 265.08C827.77 263.72 829.37 263.02 831.24 263.02C833.17 263.02 834.71 263.68 835.79 264.99Z" fill="#B2B2B2"/>
<path d="M754.34 273.43C754.29 268.6 753.08 264.8 750.59 262.13C748.06 259.41 744.54 258.05 740.09 258.05C735.4 258.05 731.69 259.46 728.93 262.27C726.16 265.04 724.75 268.88 724.75 273.85C724.75 278.4 726.07 282.06 728.74 284.83C731.37 287.59 734.93 288.95 739.38 289C743.93 288.95 747.54 287.55 750.31 284.73C752.98 281.87 754.29 278.12 754.34 273.43ZM745.62 266.07C746.98 267.8 747.64 270.34 747.64 273.57C747.64 276.81 746.98 279.29 745.62 281.03C744.21 282.76 742.24 283.65 739.66 283.7C737.18 283.65 735.16 282.76 733.66 280.98C732.16 279.2 731.41 276.76 731.41 273.71C731.41 270.48 732.16 267.99 733.62 266.16C735.12 264.34 737.13 263.4 739.66 263.4C742.24 263.4 744.21 264.29 745.62 266.07Z" fill="#B2B2B2"/>
<path d="M778.4 318.54H771.79L764.61 340.06C764.38 340.95 764.19 341.66 764.1 342.08H764C763.67 340.95 763.49 340.25 763.44 339.97L756.59 318.54H749.37L760.81 347.99L758.89 352.82C757.72 355.3 755.89 356.52 753.41 356.52C752.56 356.52 751.62 356.34 750.59 356.01V361.59C751.48 361.82 752.65 361.96 754.06 361.96C758.89 361.96 762.69 358.91 765.41 352.77L778.4 318.54Z" fill="#B2B2B2"/>
<path d="M783.6 318.54V348.04H790.17V323.65H802.69V348.04H809.25V318.54H783.6Z" fill="#B2B2B2"/>
<path d="M854.27 320.6V326.51C856.99 324.07 860.08 322.86 863.55 322.86C867.4 322.86 869.32 324.97 869.37 329.14L860.83 330.36C854.6 331.3 851.45 334.53 851.45 340.11C851.41 342.74 852.2 344.85 853.85 346.4C855.44 347.94 857.64 348.74 860.5 348.79C864.3 348.74 867.21 347 869.23 343.49H869.37V348.04H875.7V328.86C875.65 321.5 872.04 317.79 864.77 317.84C860.79 317.79 857.27 318.73 854.27 320.6ZM857.69 339.41C857.69 337.67 858.16 336.5 859.1 335.84C860.04 335.14 861.44 334.67 863.32 334.44L869.37 333.55V336.13C869.32 338.33 868.66 340.11 867.4 341.52C866.13 342.93 864.49 343.63 862.47 343.68C861.02 343.63 859.89 343.25 859 342.46C858.11 341.66 857.64 340.67 857.69 339.41Z" fill="#B2B2B2"/>
<path d="M825.34 323.75H825.2V318.54H818.68V361.63H825.2V343.72H825.34C827.26 347 830.07 348.65 833.78 348.69C837.76 348.65 840.95 347.19 843.25 344.24C845.55 341.28 846.67 337.34 846.72 332.42C846.67 327.97 845.64 324.4 843.62 321.82C841.61 319.15 838.75 317.84 835.09 317.84C830.78 317.84 827.54 319.81 825.34 323.75ZM827.26 325.72C828.62 324.03 830.49 323.18 832.84 323.18C835.04 323.18 836.78 324.03 838.09 325.67C839.36 327.31 840.01 329.56 840.01 332.47C840.01 335.89 839.31 338.61 837.95 340.58C836.54 342.5 834.62 343.49 832.23 343.49C830.17 343.44 828.48 342.69 827.17 341.19C825.8 339.69 825.1 337.86 825.15 335.7V332.09C825.1 329.51 825.8 327.4 827.26 325.72Z" fill="#B2B2B2"/>
<path d="M629.99 258.75H623.47V270.34H610.9V258.75H604.34V288.3H610.9V275.35H623.47V288.3H629.99V258.75Z" fill="#B2B2B2"/>
<path d="M645.41 258.75H639.41V288.3H645.84L657.93 269.82C658.68 268.46 659.25 267.43 659.62 266.63V288.3H665.53V258.75H659.01L646.68 277.42C646.02 278.64 645.6 279.48 645.41 280V258.75Z" fill="#B2B2B2"/>
<path d="M630.55 318.54H623.98V348.04H630.55V335.14H643.07V348.04H649.63V318.54H643.07V330.12H630.55V318.54Z" fill="#B2B2B2"/>
<path d="M665.53 318.54H659.06V348.04H673.5C676.32 348.04 678.61 347.19 680.44 345.5C682.27 343.77 683.16 341.47 683.16 338.56C683.16 335.7 682.27 333.45 680.54 331.91C678.8 330.26 676.41 329.42 673.41 329.42H665.53V318.54ZM665.53 343.25V334.25H671.49C674.81 334.25 676.5 335.7 676.5 338.61C676.46 341.66 674.81 343.21 671.53 343.25H665.53Z" fill="#B2B2B2"/>
<path d="M699.29 275.31V272.78C699.29 268.13 698.21 264.57 696.1 261.99C693.95 259.36 690.9 258.05 686.96 258.05C683.02 258.05 679.74 259.5 677.06 262.41C674.39 265.27 673.08 269.02 673.13 273.62C673.13 278.5 674.35 282.29 676.74 284.97C679.13 287.64 682.41 288.95 686.68 289C690.94 288.95 694.42 288.11 697.09 286.42V281.03C694.51 282.95 691.65 283.89 688.6 283.89C685.88 283.84 683.77 283.09 682.22 281.64C680.58 280.18 679.78 278.07 679.74 275.31H699.29ZM691.37 264.99C692.45 266.3 693.01 268.18 693.05 270.57H679.74C680.02 268.32 680.82 266.49 682.13 265.08C683.4 263.72 684.99 263.02 686.87 263.02C688.79 263.02 690.29 263.68 691.37 264.99Z" fill="#B2B2B2"/>
<path d="M707.87 318.54H700.28L709.56 333.59L699.76 348.04H707.31L712.47 338.94C713.17 337.67 713.55 336.92 713.64 336.78H713.73C714.16 337.63 714.58 338.33 714.91 338.94L719.92 348.04H727.47L718.05 333.5L727.61 318.54H720.49L714.02 330.31H713.92C713.59 329.56 713.22 328.86 712.84 328.15L707.87 318.54Z" fill="#B2B2B2"/>
<path d="M687.62 348.04H694.09V318.54H687.62V348.04Z" fill="#B2B2B2"/>
</svg>
